<?xml version="1.0" encoding="UTF-8"?>
<svg version="1.1" xmlns="http://www.w3.org/2000/svg" width="1408" height="768">
<path d="M0 0 C464.64 0 929.28 0 1408 0 C1408 253.44 1408 506.88 1408 768 C943.36 768 478.72 768 0 768 C0 514.56 0 261.12 0 0 Z " fill="#FDFDFD" transform="translate(0,0)"/>
<path d="M0 0 C2.88859789 2.04315461 4.74784756 3.7638839 6.5625 6.8125 C6.5625 10.33018239 5.4748428 11.94265766 3.5 14.875 C0.52426313 19.86726185 0.83783581 25.19448483 1.5625 30.8125 C3.36713008 37.30489697 6.94935442 40.35825657 12.5625 43.8125 C12.40394531 44.37195313 12.24539062 44.93140625 12.08203125 45.5078125 C11.04338997 50.11531894 10.47779365 55.40625186 12.45703125 59.796875 C13.63928672 61.61445178 13.63928672 61.61445178 15.5625 63.8125 C16.8825 63.4825 18.2025 63.1525 19.5625 62.8125 C19.253125 62.19375 18.94375 61.575 18.625 60.9375 C17.04646329 57.78042658 16.40412701 55.92266922 16.375 52.375 C16.36082031 51.59253906 16.34664063 50.81007813 16.33203125 50.00390625 C16.5625 47.8125 16.5625 47.8125 18.5625 44.8125 C22.1875 43.625 22.1875 43.625 25.5625 42.8125 C25.5625 41.4925 25.5625 40.1725 25.5625 38.8125 C24.84964844 38.88210938 24.13679688 38.95171875 23.40234375 39.0234375 C18.1949874 39.31779681 14.55047385 39.47756662 10.4375 36 C7.11434508 32.78019679 6.34795064 29.67080144 6.0625 25.125 C6.07850019 19.66893567 8.11536851 17.11337315 11.8359375 13.30859375 C15.69080084 9.96829361 19.6667125 10.48620298 24.57421875 10.52734375 C29.41807548 10.98956799 32.00988182 13.10530101 35.19058228 16.60267639 C36.91955189 19.38762318 36.94280006 21.15421589 36.95068359 24.41967773 C36.96014008 25.54442001 36.96959656 26.66916229 36.9793396 27.82798767 C36.97326691 29.03846268 36.96719421 30.24893768 36.9609375 31.49609375 C36.96380768 32.74375015 36.96667786 33.99140656 36.96963501 35.27687073 C36.97167681 37.9157736 36.96764824 40.55384316 36.95361328 43.19262695 C36.93653869 46.56648586 36.94635432 49.93962785 36.96433067 53.31346035 C36.97781233 56.54103009 36.96835671 59.76851463 36.9609375 62.99609375 C36.96701019 64.20454453 36.97308289 65.4129953 36.9793396 66.6580658 C36.96515488 68.34990746 36.96515488 68.34990746 36.95068359 70.07592773 C36.94829681 71.06535873 36.94591003 72.05478973 36.94345093 73.07420349 C36.36775298 77.21235244 34.748244 79.9117697 31.43359375 82.4296875 C25.2239236 85.63917994 20.3786029 86.88249098 13.5625 84.8125 C9.64310962 82.94857939 7.19219441 80.66563437 4.625 77.1875 C3.11171737 72.38060224 3.32240316 67.81007124 3.5625 62.8125 C1.9125 62.8125 0.2625 62.8125 -1.4375 62.8125 C-1.88742823 70.31130381 -2.10622651 76.61635062 2.5625 82.8125 C7.20902425 87.79837715 12.53461395 90.93282599 19.375 91.25 C24.78792904 91.10282066 28.81244448 89.23123993 33.5625 86.8125 C34.5525 86.4825 35.5425 86.1525 36.5625 85.8125 C36.66191096 89.8325263 36.73422063 93.85206963 36.78222656 97.87304688 C36.80225319 99.23873368 36.82948332 100.60433569 36.86425781 101.96972656 C36.91316432 103.94037102 36.93341347 105.91165983 36.953125 107.8828125 C36.9845459 109.65809326 36.9845459 109.65809326 37.01660156 111.46923828 C36.38671073 116.1067249 34.39057043 119.37615895 30.703125 122.2734375 C25.97560326 124.55905752 21.80845801 125.97939588 16.5625 124.8125 C12.16648167 122.95780645 9.25470708 120.82917915 6.5625 116.875 C5.46464435 113.51281706 5.04052292 111.31720323 5.5625 107.8125 C7.125 104.875 7.125 104.875 9.5625 102.8125 C13.22749128 102.94109619 16.09671195 103.65723732 19.5625 104.8125 C19.5625 103.1625 19.5625 101.5125 19.5625 99.8125 C15.89001381 97.46210884 12.85092905 97.29493098 8.5625 97.8125 C4.92783344 99.89063509 1.73147754 102.72107863 0.5625 106.8125 C0.34291941 111.42369236 0.58183499 115.30144096 1.5625 119.8125 C0.54929687 119.97685547 0.54929687 119.97685547 -0.484375 120.14453125 C-1.37640625 120.30308594 -2.2684375 120.46164062 -3.1875 120.625 C-4.06921875 120.77582031 -4.9509375 120.92664063 -5.859375 121.08203125 C-8.6285911 121.86664248 -10.2634401 122.95845359 -12.4375 124.8125 C-12.1075 126.1325 -11.7775 127.4525 -11.4375 128.8125 C-10.81875 128.503125 -10.2 128.19375 -9.5625 127.875 C-5.92540761 126.0564538 -3.74904921 125.6504257 0.375 125.625 C1.41269531 125.61082031 2.45039063 125.59664063 3.51953125 125.58203125 C6.60020533 125.81535573 8.78011592 126.51131114 11.5625 127.8125 C11.3975 128.3075 11.2325 128.8025 11.0625 129.3125 C9.745517 135.897415 10.23545904 140.93472764 13.5625 146.8125 C15.46591214 149.09659456 16.9577401 150.15947929 19.5625 151.8125 C23.31452267 152.23154703 23.31452267 152.23154703 26.5625 151.8125 C26.5625 150.8225 26.5625 149.8325 26.5625 148.8125 C26.01980469 148.58175781 25.47710937 148.35101563 24.91796875 148.11328125 C21.53042726 146.56905062 19.02269298 145.34459813 16.5625 142.5 C15.29429613 139.09170209 15.22218555 136.41983314 15.5625 132.8125 C17.9263473 130.4486527 18.48082498 130.58275009 21.6875 130.4375 C26.66183906 130.0035512 30.28300347 128.27551959 34.5625 125.8125 C35.2225 125.4825 35.8825 125.1525 36.5625 124.8125 C36.71192403 129.7745271 36.82021383 134.73521734 36.89208984 139.69897461 C36.92208059 141.38377726 36.9628887 143.0684262 37.01513672 144.75268555 C37.52502261 161.62391 37.52502261 161.62391 32.2097168 168.24609375 C27.3290697 172.88730195 22.80910683 174.07135429 16.125 174.4375 C10.35647487 174.26269621 6.73861996 172.83178816 2.07421875 169.515625 C0.5625 167.8125 0.5625 167.8125 0.5625 163.8125 C2.9375 161.25 2.9375 161.25 5.5625 158.8125 C7.68758244 155.62487635 8.0645163 153.54737777 8.5625 149.8125 C5.30144457 150.78200297 3.85742093 151.37011861 1.9375 154.25 C1.48375 155.095625 1.03 155.94125 0.5625 156.8125 C-1.94029352 159.73242578 -3.97614433 160.64724169 -7.85546875 161.0859375 C-14.72537409 161.33786633 -19.25095415 160.47552127 -24.4375 155.8125 C-27 152.75 -27 152.75 -28.4375 149.8125 C-28.02734375 147.62890625 -28.02734375 147.62890625 -27.4375 145.8125 C-26.6640625 145.87050781 -25.890625 145.92851562 -25.09375 145.98828125 C-18.62644748 146.2684243 -14.2859229 145.93442344 -8.86328125 142.296875 C-7.16553877 140.52936228 -6.82066981 139.20347964 -6.4375 136.8125 C-7.7575 136.1525 -9.0775 135.4925 -10.4375 134.8125 C-10.80875 135.740625 -10.80875 135.740625 -11.1875 136.6875 C-12.70792006 139.2722141 -13.67908795 139.71295967 -16.4375 140.8125 C-20.95330119 141.53170876 -25.44720687 141.82019796 -29.60546875 139.71484375 C-34.74317209 135.60687199 -37.05785629 130.84964964 -37.875 124.3125 C-37.22752285 119.13268283 -35.54757499 115.62963616 -31.63671875 112.26171875 C-27.22540641 109.22091121 -23.89055267 108.00464034 -18.4375 108.8125 C-15.25 110.25 -15.25 110.25 -12.4375 111.8125 C-10.20224965 112.49886625 -10.20224965 112.49886625 -8.4375 112.8125 C-8.4375 111.4925 -8.4375 110.1725 -8.4375 108.8125 C-9.55125 108.173125 -10.665 107.53375 -11.8125 106.875 C-12.43898437 106.51535156 -13.06546875 106.15570313 -13.7109375 105.78515625 C-18.0147855 103.36059029 -21.54085064 103.1531932 -26.4375 103.8125 C-32.44606953 105.92646388 -36.78842775 108.4909363 -40.4375 113.8125 C-41.0975 113.8125 -41.7575 113.8125 -42.4375 113.8125 C-45.38222483 109.02732214 -46.56986808 104.36332391 -45.4375 98.8125 C-41.52315139 96.20293426 -39.96924074 96.96759918 -35.4375 97.8125 C-31.45658491 98.54131696 -31.45658491 98.54131696 -27.4375 98.8125 C-27.4375 97.4925 -27.4375 96.1725 -27.4375 94.8125 C-28.55125 94.709375 -29.665 94.60625 -30.8125 94.5 C-32.00875 94.273125 -33.205 94.04625 -34.4375 93.8125 C-36.3826 90.89485 -36.89026317 89.18712715 -37.4375 85.8125 C-38.7575 85.8125 -40.0775 85.8125 -41.4375 85.8125 C-41.7675 87.7925 -42.0975 89.7725 -42.4375 91.8125 C-45.27592501 91.72901691 -46.97799314 91.2401272 -49.0703125 89.29296875 C-53.62404421 84.06827657 -54.7810548 80.24829717 -54.73046875 73.328125 C-54.28541194 69.50657053 -52.94612627 67.69004189 -50.4375 64.8125 C-49.4475 64.3175 -49.4475 64.3175 -48.4375 63.8125 C-48.00050781 64.60914063 -48.00050781 64.60914063 -47.5546875 65.421875 C-44.80991839 70.15185447 -42.54687742 73.44704749 -37.4375 75.8125 C-33.77388436 76.40454838 -30.14434221 76.68058391 -26.4375 76.8125 C-26.06625 77.864375 -25.695 78.91625 -25.3125 80 C-23.46859285 84.26782266 -21.30587353 86.23358431 -17.4375 88.8125 C-14.21316873 89.686438 -14.21316873 89.686438 -11.4375 89.8125 C-11.1075 88.1625 -10.7775 86.5125 -10.4375 84.8125 C-11.159375 84.750625 -11.88125 84.68875 -12.625 84.625 C-16.3616641 83.54551926 -17.96402263 81.76693131 -20.4375 78.8125 C-21.5 76.8125 -21.5 76.8125 -21.4375 74.8125 C-20.81875 74.049375 -20.2 73.28625 -19.5625 72.5 C-16.99017535 69.24676588 -16.75707571 66.88709035 -16.4375 62.8125 C-17.7575 62.4825 -19.0775 62.1525 -20.4375 61.8125 C-20.705625 62.740625 -20.97375 63.66875 -21.25 64.625 C-22.97385586 69.25219204 -22.97385586 69.25219204 -25.4375 70.8125 C-30.33368787 72.01648062 -32.25139137 72.43912343 -36.75 70.0625 C-42.21169355 65.48991935 -42.21169355 65.48991935 -43.4375 61.8125 C-43.8554409 56.62225717 -43.55443912 52.61089534 -41.4375 47.8125 C-42.12132061 44.82110209 -42.12132061 44.82110209 -44 43.625 C-45.90922799 41.21771254 -46.03203253 39.09789825 -45.92578125 36.078125 C-44.98346794 31.70579126 -42.40629226 28.09451346 -39.4375 24.8125 C-37.234375 23.5546875 -37.234375 23.5546875 -35.4375 22.8125 C-35.29054687 23.77349609 -35.29054687 23.77349609 -35.140625 24.75390625 C-34.0214423 31.2277993 -32.93109336 36.93849692 -27.609375 41.31640625 C-24.36108514 43.49226453 -22.12502475 44.74639185 -18.1875 45.125 C-15.4375 45.8125 -15.4375 45.8125 -14.1796875 47.640625 C-13.16470053 49.67059894 -12.25682602 51.69671103 -11.4375 53.8125 C-9.4575 53.3175 -9.4575 53.3175 -7.4375 52.8125 C-7.581875 52.235 -7.72625 51.6575 -7.875 51.0625 C-8.39583333 48.97916667 -8.91666667 46.89583333 -9.4375 44.8125 C-8.468125 44.255625 -7.49875 43.69875 -6.5 43.125 C-3.24758721 41.13214195 -3.24758721 41.13214195 -2.5625 38.0625 C-2.52125 37.32 -2.48 36.5775 -2.4375 35.8125 C-5.37854044 36.23264863 -7.2638778 36.69518771 -9.75 38.375 C-13.37917933 40.31618895 -16.48362454 40.85528034 -20.4375 39.8125 C-24.01710427 37.4343546 -27.4914245 34.704651 -29.4375 30.8125 C-29.55898305 29.19084248 -29.61293652 27.56365673 -29.625 25.9375 C-29.63917969 25.07382812 -29.65335938 24.21015625 -29.66796875 23.3203125 C-29.42609252 20.6883712 -28.76733541 19.07269456 -27.4375 16.8125 C-19.16220076 17.16614527 -19.16220076 17.16614527 -16.125 19.875 C-15.568125 20.514375 -15.01125 21.15375 -14.4375 21.8125 C-13.1175 21.8125 -11.7975 21.8125 -10.4375 21.8125 C-10.47530298 19.44016389 -10.47530298 19.44016389 -11.4375 16.8125 C-15.79776645 13.09032133 -19.9591415 11.94595348 -25.4375 10.8125 C-25.21604028 6.93695494 -24.50036207 5.8725682 -21.625 3.125 C-14.77546943 -1.84426728 -8.1467373 -2.81432743 0 0 Z " fill="#FBFBFB" transform="translate(208.4375,296.1875)"/>
<path d="M0 0 C1.20970459 0.00523682 2.41940918 0.01047363 3.66577148 0.01586914 C4.97094727 0.0190918 6.27612305 0.02231445 7.62084961 0.02563477 C9.00952213 0.03399138 10.39819401 0.04245634 11.78686523 0.05102539 C13.17944179 0.05603873 14.57202005 0.06060193 15.96459961 0.06469727 C19.38456394 0.07653105 22.80444367 0.09301659 26.22436523 0.11352539 C31.91183363 10.56269491 36.16984478 21.58607269 40.56838989 32.61920166 C42.87250325 38.39772515 45.19339973 44.1695021 47.51342773 49.94165039 C47.98577347 51.11776886 48.4581192 52.29388733 48.94477844 53.50564575 C54.59269103 67.5493154 60.38415015 81.53317479 66.18212891 95.51538086 C66.55999542 96.42692932 66.93786194 97.33847778 67.32717896 98.27764893 C68.02090707 99.95044561 68.71531303 101.62296145 69.41061401 103.29510498 C70.03390297 104.79670028 70.65492605 106.29923849 71.27346802 107.80279541 C71.96022041 109.47163964 72.65311095 111.13796248 73.349823 112.80267334 C73.71697418 113.6933551 74.08412537 114.58403687 74.46240234 115.50170898 C74.79928574 116.31191498 75.13616913 117.12212097 75.48326111 117.95687866 C76.22436523 120.11352539 76.22436523 120.11352539 76.22436523 123.11352539 C66.32436523 123.11352539 56.42436523 123.11352539 46.22436523 123.11352539 C44.90436523 119.71040039 43.58436523 116.30727539 42.22436523 112.80102539 C41.80670898 111.73198975 41.38905273 110.6629541 40.95874023 109.56152344 C40.63389648 108.71630127 40.30905273 107.8710791 39.97436523 107.00024414 C39.47163086 105.70413208 39.47163086 105.70413208 38.95874023 104.38183594 C38.22436523 102.11352539 38.22436523 102.11352539 38.22436523 99.11352539 C23.70436523 99.11352539 9.18436523 99.11352539 -5.77563477 99.11352539 C-3.39662038 91.18347742 -0.79504435 83.78445784 2.22436523 76.11352539 C10.80436523 76.11352539 19.38436523 76.11352539 28.22436523 76.11352539 C27.32073242 73.69137695 26.41709961 71.26922852 25.48608398 68.77368164 C24.60200581 66.40069113 23.71845873 64.02750352 22.83496094 61.65429688 C22.22548873 60.01802277 21.61547349 58.38195082 21.00488281 56.74609375 C20.1221505 54.38083309 19.24144037 52.0148275 18.36108398 49.64868164 C18.09220871 48.92955093 17.82333344 48.21042023 17.54631042 47.46949768 C15.65834469 42.3870192 13.91032646 37.26640077 12.22436523 32.11352539 C8.40140422 40.37038066 5.23037179 48.85045224 2.03686523 57.36352539 C1.43541017 58.9608765 0.83367838 60.55812344 0.23168945 62.15527344 C-1.06700719 65.60169281 -2.3643497 69.04861797 -3.66088867 72.49584961 C-7.09547441 81.62409039 -10.54686925 90.74599024 -13.99526978 99.86901855 C-15.84726534 104.76925626 -17.69819209 109.66989755 -19.54907227 114.57055664 C-21.1462207 118.79932617 -21.1462207 118.79932617 -22.77563477 123.11352539 C-32.67563477 123.11352539 -42.57563477 123.11352539 -52.77563477 123.11352539 C-48.0385582 110.28173239 -42.98554491 97.59802778 -37.83813477 84.92602539 C-36.99631931 82.84935736 -36.15468779 80.77261475 -35.31323242 78.69580078 C-33.61481437 74.50483193 -31.91523451 70.31433735 -30.21459961 66.12426758 C-27.97825958 60.61399792 -25.74541823 55.10231818 -23.51391602 49.59008789 C-20.46792673 42.06675685 -17.41745653 34.54525698 -14.36352539 27.02514648 C-13.33494199 24.49211566 -12.30781877 21.9585091 -11.28149414 19.42456055 C-9.99023104 16.23658546 -8.69596599 13.04984917 -7.40063477 9.86352539 C-7.03695801 8.9636792 -6.67328125 8.06383301 -6.29858398 7.13671875 C-3.44708255 0.14098807 -3.44708255 0.14098807 0 0 Z " fill="#22305E" transform="translate(352.775634765625,363.886474609375)"/>
<path d="M0 0 C8.19097888 4.21250342 13.26733581 9.55139385 16.25 18.375 C16.95560716 23.66816463 16.93553649 28.91192001 16.89697266 34.23852539 C16.90375953 35.82144676 16.91266863 37.40436021 16.92352295 38.98725891 C16.94619427 43.2600614 16.9375313 47.532256 16.92162752 51.80506825 C16.90890725 56.29050708 16.92072536 60.77589626 16.92855835 65.26133728 C16.93763622 72.79061157 16.9257151 80.31964004 16.90185547 87.84887695 C16.87463781 96.53780428 16.88347037 105.22614503 16.9109875 113.9150582 C16.93371902 121.39394571 16.93685924 128.87265724 16.92379415 136.35156816 C16.91602307 140.81025738 16.91489338 145.26867137 16.93147659 149.72734261 C16.94598158 153.91948304 16.93579074 158.11087118 16.90700531 162.30293083 C16.90042691 163.83591339 16.9022363 165.36895989 16.91331863 166.9019165 C16.97612412 176.47631557 16.35375647 183.99863428 9.51033974 191.20758152 C2.26489849 198.04133124 -4.38373722 198.95544982 -14.15234375 198.71484375 C-18.81545825 198.27435411 -22.1545417 197.42441907 -25.75 194.375 C-26.85377831 192.99527711 -27.93621181 191.59828577 -29 190.1875 C-31.16970971 187.48653413 -32.13404073 186.49768069 -35.57421875 185.8125 C-37.65424998 185.72898557 -39.7351678 185.66526485 -41.81640625 185.62109375 C-47.9927154 185.10297461 -52.06119413 181.34321261 -56.125 176.9375 C-60.29765218 171.68766859 -61.01578906 167.01972656 -60.75 160.375 C-61.74 160.045 -62.73 159.715 -63.75 159.375 C-68.29733681 153.03434726 -69.48250449 147.02560242 -68.75 139.375 C-69.74 139.045 -70.73 138.715 -71.75 138.375 C-76.23583401 132.39388799 -77.90906179 127.87521552 -78.0625 120.4375 C-78.42867531 114.0460764 -79.25621986 111.76178537 -83.75 107.375 C-87.29429263 101.26415064 -87.57565179 95.35129379 -86.75 88.375 C-85.4155627 83.79117018 -83.41875468 80.69500968 -79.625 77.8125 C-76.07947125 74.80650823 -75.31313455 72.96052417 -74.75 68.375 C-75.430625 67.01375 -75.430625 67.01375 -76.125 65.625 C-78.74715175 60.38069649 -78.73965798 54.75633143 -77.09375 49.1328125 C-74.3199308 42.98736824 -69.74373915 37.64158195 -63.5 35 C-60.30469824 33.11186714 -60.33324858 32.7115989 -59.4375 29.3125 C-57.46237839 22.12917079 -52.1054669 16.36978544 -45.7734375 12.60546875 C-42.8104278 11.39959271 -40.84818138 11.07752701 -37.6875 11.0625 C-33.42866183 10.78592071 -33.42866183 10.78592071 -30.375 7.6875 C-30.00890625 7.15511719 -29.6428125 6.62273437 -29.265625 6.07421875 C-21.90363178 -2.17956231 -9.89648186 -3.95189462 0 0 Z M-50.75 24.5 C-51.98529412 26.4620098 -51.98529412 26.4620098 -51.75 29.375 C-51.08613281 29.53355469 -50.42226562 29.69210937 -49.73828125 29.85546875 C-44.03359309 31.36283891 -40.34001314 32.58831581 -36.75 37.375 C-36.75 38.365 -36.75 39.355 -36.75 40.375 C-38.07 40.375 -39.39 40.375 -40.75 40.375 C-41.306875 39.735625 -41.86375 39.09625 -42.4375 38.4375 C-45.83620367 35.40622376 -49.32713615 35.56401128 -53.75 35.375 C-56.35375561 39.94207132 -56.67509109 44.22769831 -55.75 49.375 C-53.45204167 53.34024671 -50.53284717 55.85310189 -46.75 58.375 C-40.43663724 58.9959865 -37.9640568 58.16704131 -32.75 54.375 C-31.43 54.375 -30.11 54.375 -28.75 54.375 C-28.875 56.625 -28.875 56.625 -29.75 59.375 C-32.8125 61.6875 -32.8125 61.6875 -35.75 63.375 C-35.399375 64.1175 -35.04875 64.86 -34.6875 65.625 C-33.70490707 68.5072726 -33.7173198 69.58676345 -34.75 72.375 C-36.5625 72.3125 -36.5625 72.3125 -38.75 71.375 C-39.1625 70.240625 -39.575 69.10625 -40 67.9375 C-40.5775 66.761875 -41.155 65.58625 -41.75 64.375 C-45.20188164 63.26005673 -45.20188164 63.26005673 -47.625 62.875 C-52.06887093 61.82938331 -55.42361088 59.25204158 -58.0390625 55.55078125 C-60.58030432 50.89793201 -61.37451366 46.63180873 -61.75 41.375 C-66.68591489 44.17949709 -69.80608516 46.92764543 -71.75 52.375 C-72.22824771 55.29822194 -72.10143498 57.36270021 -71.75 60.375 C-70.37485459 62.0837646 -70.37485459 62.0837646 -68.75 63.375 C-67.9375 65.875 -67.9375 65.875 -67.75 68.375 C-68.41 69.365 -69.07 70.355 -69.75 71.375 C-70.35321137 75.55831003 -70.20950776 79.28669214 -68.5625 83.1875 C-65.43748342 86.95907174 -63.04684535 89.02763071 -58.25 90.3125 C-54.24395901 90.38403645 -52.80229579 89.91857983 -49.75 87.375 C-47.38899477 84.16423522 -47.38899477 84.16423522 -46.75 80.375 C-45.43 80.705 -44.11 81.035 -42.75 81.375 C-43.17678475 86.81650555 -44.37089073 89.2074319 -47.75 93.375 C-47.84900221 96.54307081 -46.5501078 97.61376013 -44.5 100.0625 C-41.72138802 102.39906007 -40.30150592 103.07058521 -36.75 103.375 C-37.08 105.025 -37.41 106.675 -37.75 108.375 C-43.64341955 107.27622686 -46.93773505 106.30851935 -50.75 101.375 C-52.0625 98.0625 -52.0625 98.0625 -52.75 95.375 C-53.45125 95.37242187 -54.1525 95.36984375 -54.875 95.3671875 C-62.07297503 95.07379178 -66.74740596 93.70864806 -71.75 88.375 C-73.75 85 -73.75 85 -74.75 82.375 C-79.91212679 87.3647949 -79.91212679 87.3647949 -81 94.125 C-80.92477868 99.3528818 -80.07181868 102.98339989 -76.3203125 106.84765625 C-73.68246897 109.20334239 -72.36350534 110.375 -68.75 110.375 C-68.42 108.395 -68.09 106.415 -67.75 104.375 C-66.43 104.375 -65.11 104.375 -63.75 104.375 C-63.440625 105.32375 -63.13125 106.2725 -62.8125 107.25 C-61.87605258 110.23580408 -61.87605258 110.23580408 -60.75 112.375 C-58.42843403 112.78229228 -56.0931213 113.11938677 -53.75 113.375 C-53.75 114.695 -53.75 116.015 -53.75 117.375 C-59.29074074 117.62685185 -59.29074074 117.62685185 -61.6875 116.3125 C-64.854247 114.87306955 -67.42836398 115.68560384 -70.75 116.375 C-72.30090815 117.92590815 -71.95677311 119.41196233 -72 121.5625 C-71.97267577 125.8387426 -71.0181142 128.68931442 -68.75 132.375 C-65.9817604 131.24719868 -64.52834465 130.14136328 -62.4375 127.9375 C-58.25599736 123.95048586 -54.04534264 122.23351597 -48.3125 121.9375 C-43.61019968 122.10658957 -39.48669587 123.47166796 -35.75 126.375 C-34.52734375 128.515625 -34.52734375 128.515625 -33.75 130.375 C-35.5 131.0625 -35.5 131.0625 -37.75 131.375 C-39.8125 130 -39.8125 130 -41.75 128.375 C-45.98437376 126.96354208 -49.61261347 126.4857515 -53.84375 128.24609375 C-58.92495958 131.13745368 -61.51412995 133.97164739 -63.75 139.375 C-64.61263644 145.30562553 -62.99403104 149.51403812 -59.75 154.375 C-57.0709729 157.51142197 -55.24131584 159.12385441 -51.12890625 159.81640625 C-45.11019229 160.0695679 -41.22795227 159.48987506 -36.75 155.375 C-36.75 154.715 -36.75 154.055 -36.75 153.375 C-35.43 154.035 -34.11 154.695 -32.75 155.375 C-33.13411609 157.74034642 -33.48331146 159.09033246 -35.140625 160.859375 C-41.44858026 165.15302522 -47.31199682 164.88522888 -54.75 164.375 C-53.71100867 170.39503799 -51.57701901 173.95812811 -46.6875 177.75 C-41.95744659 180.19164744 -36.93020666 180.04858724 -31.75 179.375 C-27.75352367 177.6265416 -24.59874541 175.29882292 -22.8125 171.25 C-21.75 169.375 -21.75 169.375 -19.68359375 168.7578125 C-19.04550781 168.63148438 -18.40742188 168.50515625 -17.75 168.375 C-18.88557199 174.46579523 -20.03646708 177.13282037 -24.75 181.375 C-25.45845842 182.68660546 -26.13399858 184.01751539 -26.75 185.375 C-25.45982586 186.35613243 -24.16780894 187.33484199 -22.875 188.3125 C-22.15570313 188.85777344 -21.43640625 189.40304687 -20.6953125 189.96484375 C-15.6298615 193.63678715 -9.78001617 192.85570469 -3.75 192.375 C2.1320915 190.97314889 5.78898606 187.4460926 9.01293945 182.45336914 C11.74788183 175.64758892 10.84874398 168.02507712 10.625 160.8125 C10.59485778 159.11918813 10.56748949 157.42582448 10.54296875 155.73242188 C10.47731862 151.61198818 10.37403971 147.49407255 10.25 143.375 C9.58613281 143.72796143 8.92226562 144.08092285 8.23828125 144.44458008 C7.35527344 144.90243896 6.47226563 145.36029785 5.5625 145.83203125 C4.69238281 146.28811768 3.82226562 146.7442041 2.92578125 147.21411133 C-0.40192818 148.65783928 -3.34445377 149.01481182 -6.9375 149.13671875 C-9.00193974 149.22100158 -9.00193974 149.22100158 -10.75 151.375 C-11.22433963 155.4859435 -10.98978787 157.87624123 -9.1875 161.625 C-6.18857549 165.00840201 -3.97487655 165.91254273 0.25 167.375 C0.25 168.365 0.25 169.355 0.25 170.375 C-3.1049583 170.78581122 -5.70584988 170.97643047 -8.703125 169.25 C-12.6142329 166.09482052 -14.83639428 163.45058731 -15.75 158.375 C-16.03520977 154.28699333 -16.05939709 150.30319127 -14.75 146.375 C-18.55981265 144.61392638 -21.62347865 144.07838757 -25.8125 144.0625 C-27.34583984 144.03736328 -27.34583984 144.03736328 -28.91015625 144.01171875 C-32.11183913 144.42128754 -33.26353191 145.43395072 -35.75 147.375 C-36.74 147.045 -37.73 146.715 -38.75 146.375 C-38.45123405 143.48692917 -37.9693272 142.55444953 -35.6875 140.6875 C-31.95692892 139.02064909 -28.81502604 138.71949373 -24.75 138.375 C-24.915 137.715 -25.08 137.055 -25.25 136.375 C-26.17166038 130.8450377 -26.62275637 127.02700312 -24 122.0625 C-19.35861759 116.51862657 -19.35861759 116.51862657 -14.25 116.0625 C-11.1009252 116.34366739 -9.36762012 116.69972312 -6.75 118.375 C-6.75 120.025 -6.75 121.675 -6.75 123.375 C-7.471875 123.045 -8.19375 122.715 -8.9375 122.375 C-11.90523736 121.3198045 -13.64800441 120.81823156 -16.75 121.375 C-19.33329289 123.22650394 -19.33329289 123.22650394 -20.75 126.375 C-21.19392178 131.18850475 -20.48816051 134.43179491 -17.5 138.25 C-16.13875 139.301875 -16.13875 139.301875 -14.75 140.375 C-13.986875 140.973125 -13.22375 141.57125 -12.4375 142.1875 C-8.02911589 144.13539065 -4.10731246 144.13224919 0.40234375 142.68359375 C5.32914587 140.49084569 7.52610763 138.14529666 10.25 133.375 C10.79451484 130.00158512 10.79451484 130.00158512 10.640625 126.4453125 C10.62128906 124.51171875 10.62128906 124.51171875 10.6015625 122.5390625 C10.56814906 121.19269732 10.53428937 119.84634315 10.5 118.5 C10.47991356 117.13023431 10.46166655 115.76044034 10.4453125 114.390625 C10.3982806 111.05136014 10.33255864 107.71354438 10.25 104.375 C9.66476563 104.67148437 9.07953125 104.96796875 8.4765625 105.2734375 C1.73300384 108.60972442 -4.19011409 110.61547664 -11.75 109.375 C-18.62971415 106.8196776 -23.62485738 102.72154605 -26.87109375 96.08203125 C-27.89344243 92.93319732 -27.94758896 90.36529779 -27.875 87.0625 C-27.85695312 85.99386719 -27.83890625 84.92523438 -27.8203125 83.82421875 C-27.79710937 83.01597656 -27.77390625 82.20773437 -27.75 81.375 C-26.1 81.375 -24.45 81.375 -22.75 81.375 C-22.79640625 82.08785156 -22.8428125 82.80070312 -22.890625 83.53515625 C-23.1399618 90.15148643 -22.85048163 94.08753684 -18.75 99.375 C-14.6751709 103.06175013 -10.79386197 104.25575104 -5.41796875 104.60546875 C-0.64559045 104.19321352 3.45671908 102.25650147 7.25 99.375 C9.88422823 95.69919549 10.62942188 93.15111422 10.65405273 88.65429688 C10.66673691 87.52963013 10.67942108 86.40496338 10.69248962 85.24621582 C10.68955399 84.0409021 10.68661835 82.83558838 10.68359375 81.59375 C10.6888356 80.34750854 10.69407745 79.10126709 10.69947815 77.81726074 C10.70753766 74.51138852 10.70043889 71.20593201 10.68914795 67.90008545 C10.68750138 65.8767 10.69949053 63.85387532 10.71655273 61.83056641 C10.74720545 57.93885992 10.7506382 54.04805777 10.74609375 50.15625 C10.75732773 48.95093628 10.76856171 47.74562256 10.78013611 46.50378418 C10.79707911 40.03710125 10.79707911 40.03710125 8.36816406 34.18701172 C3.07646583 29.66015784 -0.82587785 28.67619018 -7.7265625 28.8125 C-12.67160458 29.73250783 -15.6142082 32.57768499 -18.75 36.375 C-20.59455761 40.06411523 -20.10062965 44.33957145 -19.75 48.375 C-18.0348967 52.52735536 -15.66691274 55.17173658 -11.75 57.375 C-8.0583635 57.70302976 -4.44540577 57.6079853 -0.75 57.375 C-0.75 58.695 -0.75 60.015 -0.75 61.375 C-1.86375 61.643125 -2.9775 61.91125 -4.125 62.1875 C-7.96840951 63.03309019 -7.96840951 63.03309019 -9.75 66.375 C-10.33770344 70.5194541 -10.5216731 74.20205689 -8.1875 77.75 C-7.713125 78.28625 -7.23875 78.8225 -6.75 79.375 C-7.08 80.365 -7.41 81.355 -7.75 82.375 C-10.56042113 82.08426678 -11.58347282 81.55936938 -13.5 79.4375 C-15.73169195 73.96985471 -15.36374829 68.01010492 -13.75 62.375 C-14.29269531 62.02308594 -14.83539063 61.67117188 -15.39453125 61.30859375 C-20.0972481 58.06329545 -23.62692251 55.21716271 -24.75 49.375 C-25.64920444 41.96678157 -25.21012867 37.17122756 -20.8203125 31.11328125 C-19.49095722 29.26148555 -19.49095722 29.26148555 -19.5625 26.1875 C-21.23156569 22.23444968 -23.23518397 20.83537122 -26.75 18.375 C-36.17889904 15.23203365 -44.04852579 17.37968366 -50.75 24.5 Z " fill="#6B6B6B" transform="translate(234.75,277.625)"/>
<path d="M0 0 C0.70189453 0.00902344 1.40378906 0.01804688 2.12695312 0.02734375 C3.85561525 0.05086296 5.58410145 0.08673287 7.3125 0.125 C8.3025 4.745 9.2925 9.365 10.3125 14.125 C12.2925 14.455 14.2725 14.785 16.3125 15.125 C17.385 15.62 18.4575 16.115 19.5625 16.625 C24.15006606 17.23667548 25.05632241 16.3444308 28.75 13.75 C30.28756361 12.56302839 31.81413053 11.36107944 33.3125 10.125 C38.58362904 12.92192561 42.90648317 16.10735547 47.3125 20.125 C46.90991599 22.62102086 46.44241676 24.84745055 45.3671875 27.14453125 C43.83485951 30.58925284 43.01262439 32.94717531 43.9609375 36.671875 C45.47594563 39.55498138 46.68213814 41.17931223 49.3125 43.125 C54.01384879 44.17147963 58.51071558 44.28944467 63.3125 44.125 C65.58307103 50.16557576 66.80164188 55.68818772 67.3125 62.125 C65.69000059 62.96319158 64.06441503 63.7954116 62.4375 64.625 C61.08011719 65.32109375 61.08011719 65.32109375 59.6953125 66.03125 C57.3125 67.125 57.3125 67.125 55.3125 67.125 C55.32410156 67.70507812 55.33570313 68.28515625 55.34765625 68.8828125 C55.40012174 73.4248246 55.23001063 77.65213569 54.3125 82.125 C54.828125 82.351875 55.34375 82.57875 55.875 82.8125 C59.23653127 84.6225553 62.24161144 86.86496404 65.3125 89.125 C63.94658831 92.66743452 62.40318516 96.05127929 60.6875 99.4375 C60.01847656 100.76201172 60.01847656 100.76201172 59.3359375 102.11328125 C58.99820313 102.77714844 58.66046875 103.44101562 58.3125 104.125 C56.81009766 104.00318359 56.81009766 104.00318359 55.27734375 103.87890625 C47.78844751 103.35104485 47.78844751 103.35104485 40.72265625 105.4375 C38.75458777 107.2405566 37.4793075 108.72551683 36.3125 111.125 C36.15766561 114.62760082 36.15766561 114.62760082 37.3125 118.125 C37.52299586 119.6010697 37.71063261 121.08058447 37.875 122.5625 C38.019375 123.738125 38.16375 124.91375 38.3125 126.125 C36.40523249 127.32753816 34.4862988 128.51158949 32.5625 129.6875 C31.49515625 130.34878906 30.4278125 131.01007813 29.328125 131.69140625 C26.3125 133.125 26.3125 133.125 24.11328125 133.06640625 C21.8688253 131.89305726 20.80188874 130.4924505 19.25 128.5 C16.8883305 125.96816654 15.9146291 125.17450118 12.4140625 124.88671875 C9.69546209 125.15578332 6.99871125 125.62755347 4.3125 126.125 C4.3125 120.185 4.3125 114.245 4.3125 108.125 C6.6225 107.279375 8.9325 106.43375 11.3125 105.5625 C23.00793657 100.99410748 28.98190093 94.26011275 34.34765625 82.94140625 C37.77969554 74.24158573 37.40004774 64.22449747 34.34765625 55.46484375 C29.24690764 43.93522707 20.71338615 37.02555852 9.3125 32.125 C-0.03929028 29.00773657 -11.56490275 29.99678464 -20.375 34.125 C-22.128125 35.115 -23.88125 36.105 -25.6875 37.125 C-25.6875 30.525 -25.6875 23.925 -25.6875 17.125 C-20.6875 15.125 -20.6875 15.125 -17.0625 14.6875 C-13.51071949 13.51103302 -13.51071949 13.51103302 -12.6796875 10.62109375 C-12.19056725 8.64659253 -11.75914223 6.65677211 -11.390625 4.65625 C-9.8132659 -1.02224275 -4.86777251 -0.11817188 0 0 Z " fill="#A1A1A2" transform="translate(299.6875,252.875)"/>
<path d="M0 0 C9.57 0 19.14 0 29 0 C29.79225337 29.52558542 30.09314155 59.02787539 30.0625 88.5625 C30.06164398 89.39347576 30.06078796 90.22445152 30.05990601 91.08060837 C30.04850136 101.3871045 30.02543415 111.69351865 30 122 C20.1 122 10.2 122 0 122 C0 81.74 0 41.48 0 0 Z " fill="#195B8A" transform="translate(265,365)"/>
<path d="M0 0 C1.4540625 0.0309375 1.4540625 0.0309375 2.9375 0.0625 C8.988734 13.60337608 14.12356408 25.12824723 8.66651917 39.5670929 C8.19737343 40.7752491 8.19737343 40.7752491 7.71875 42.0078125 C7.38854355 42.87572922 7.0583371 43.74364594 6.71812439 44.63786316 C5.63122285 47.49032765 4.53434992 50.33884789 3.4375 53.1875 C2.67901183 55.1731322 1.92129198 57.15905805 1.16430664 59.14526367 C-0.42251406 63.30712086 -2.0127058 67.46766799 -3.60498047 71.62744141 C-7.26273036 81.1931777 -10.87343798 90.77669074 -14.48730469 100.35906982 C-16.30350808 105.17366523 -18.12255798 109.98718456 -19.94140625 114.80078125 C-20.97136719 117.52714844 -22.00132812 120.25351562 -23.0625 123.0625 C-32.9625 123.0625 -42.8625 123.0625 -53.0625 123.0625 C-48.32542343 110.230707 -43.27241015 97.54700238 -38.125 84.875 C-37.28318454 82.79833197 -36.44155302 80.72158936 -35.60009766 78.64477539 C-33.90167961 74.45380653 -32.20209974 70.26331195 -30.50146484 66.07324219 C-28.26512482 60.56297253 -26.03228346 55.05129279 -23.80078125 49.5390625 C-20.75479196 42.01573146 -17.70432177 34.49423158 -14.65039062 26.97412109 C-13.62180723 24.44109027 -12.59468401 21.90748371 -11.56835938 19.37353516 C-10.27709628 16.18556007 -8.98283123 12.99882378 -7.6875 9.8125 C-7.32382324 8.91265381 -6.96014648 8.01280762 -6.58544922 7.08569336 C-3.72829222 0.0760876 -3.72829222 0.0760876 0 0 Z " fill="#0E88BB" transform="translate(353.0625,363.9375)"/>
<path d="M0 0 C5.61 0 11.22 0 17 0 C20.46022366 3.46022366 22.40203749 5.74626945 24.7109375 9.82421875 C26.83580278 13.41073379 29.2470822 16.79774532 31.61865234 20.22412109 C34.09800956 23.80890114 36.5350292 27.4214286 38.97119141 31.03564453 C41.94548327 35.38147508 44.98004388 39.68577698 48 44 C48.33 29.48 48.66 14.96 49 0 C53.95 0 58.9 0 64 0 C64 22.44 64 44.88 64 68 C47 68 47 68 43.43359375 64.7421875 C42.58881052 63.17914942 41.78070408 61.59600999 41 60 C39.74040698 58.09316787 38.45880255 56.20076487 37.16015625 54.3203125 C35.79191031 52.25677155 34.42606684 50.19163583 33.0625 48.125 C28.6017527 41.37658115 24.11059399 34.66187685 19.44311523 28.05419922 C18.27128335 26.3861577 17.1307659 24.69614886 16 23 C15.67 37.85 15.34 52.7 15 68 C10.05 68 5.1 68 0 68 C0 45.56 0 23.12 0 0 Z " fill="#243461" transform="translate(441,295)"/>
<path d="M0 0 C5.61 0 11.22 0 17 0 C20.43119397 3.43119397 22.35417179 5.73105451 24.65917969 9.77246094 C27.55832113 14.58887873 30.94272848 19.10041812 34.1875 23.6875 C35.53848956 25.62658814 36.88624486 27.56793436 38.23046875 29.51171875 C38.81207764 30.35178467 39.39368652 31.19185059 39.99291992 32.05737305 C42.69357195 36.01686203 45.34142465 40.01213697 48 44 C48.33 29.48 48.66 14.96 49 0 C53.95 0 58.9 0 64 0 C64 22.44 64 44.88 64 68 C58.39 68 52.78 68 47 68 C43.75213111 64.70506054 42.07752989 62.74599962 40.03125 58.86181641 C37.9980003 55.19099201 35.54264612 51.78162235 33.1875 48.3125 C32.26310342 46.91356548 31.33996724 45.51379744 30.41796875 44.11328125 C25.68197224 37.02823047 20.82806245 30.02263629 16 23 C15.67 37.85 15.34 52.7 15 68 C10.05 68 5.1 68 0 68 C0 45.56 0 23.12 0 0 Z " fill="#184F7D" transform="translate(852,295)"/>
<path d="M0 0 C0.87398437 0.7425 0.87398437 0.7425 1.765625 1.5 C1.765625 5.46130371 0.41685375 6.32914401 -2.234375 9.1875 C-3.348125 10.39986328 -3.348125 10.39986328 -4.484375 11.63671875 C-5.350625 12.55904297 -5.350625 12.55904297 -6.234375 13.5 C-6.96140625 13.066875 -7.6884375 12.63375 -8.4375 12.1875 C-15.84587062 8.08440242 -21.76464308 6.12036945 -30.234375 7.5 C-36.45608043 9.29109702 -40.66500308 13.17681904 -44.234375 18.5 C-46.54035267 25.417933 -46.21821815 33.32407837 -43.296875 40 C-40.30669658 45.08578823 -36.95624157 47.93586353 -31.234375 49.5 C-24.11917602 50.12979633 -17.25139045 49.81501672 -10.234375 48.5 C-10.234375 44.54 -10.234375 40.58 -10.234375 36.5 C-14.854375 36.5 -19.474375 36.5 -24.234375 36.5 C-24.234375 32.21 -24.234375 27.92 -24.234375 23.5 C-14.994375 23.5 -5.754375 23.5 3.765625 23.5 C3.94984469 27.969886 4.10875869 32.4265502 4.20507812 36.8972168 C4.24521807 38.41557479 4.2997483 39.93362522 4.36914062 41.45092773 C4.93028826 54.03961474 4.93028826 54.03961474 2.11181641 57.57373047 C0.02095952 58.91174199 -1.87360752 59.75152558 -4.234375 60.5 C-5.07226562 60.86609375 -5.91015625 61.2321875 -6.7734375 61.609375 C-19.33247192 65.46645673 -31.04692665 66.07584393 -43.234375 60.5 C-51.99544372 55.38200194 -57.93864438 48.06606938 -61.234375 38.5 C-63.75368023 28.00007684 -62.50399039 18.91860372 -57.234375 9.5 C-51.59733564 1.19131171 -43.54399291 -4.51232128 -33.828125 -7.03125 C-21.65912389 -9.23046707 -10.45669952 -6.31347895 0 0 Z " fill="#164E7E" transform="translate(777.234375,300.5)"/>
<path d="M0 0 C5.61 0 11.22 0 17 0 C23.87866119 15.7292826 30.67675422 31.48988225 37.29977417 47.32873535 C37.97527102 48.94373972 38.6519694 50.55824204 39.3298645 52.17224121 C40.28224795 54.44140997 41.22977975 56.71253952 42.17578125 58.984375 C42.46265808 59.66636963 42.74953491 60.34836426 43.04510498 61.05102539 C45 65.77052446 45 65.77052446 45 68 C39.72 68 34.44 68 29 68 C24 57.25 24 57.25 24 55 C16.08 55 8.16 55 0 55 C0.99 51.04 1.98 47.08 3 43 C8.28 43 13.56 43 19 43 C17.73240103 39.7903551 16.46104621 36.5822845 15.1875 33.375 C14.83107422 32.47136719 14.47464844 31.56773437 14.10742188 30.63671875 C12.25370842 25.9769253 10.33710254 21.43828305 8 17 C1.61334419 33.98046857 -4.71064098 50.98327915 -11 68 C-16.28 68 -21.56 68 -27 68 C-25.10547915 62.17265366 -23.06549678 56.4692754 -20.7421875 50.80078125 C-20.43741989 50.05073822 -20.13265228 49.30069519 -19.81864929 48.52792358 C-18.8401305 46.12167379 -17.85764406 43.71706771 -16.875 41.3125 C-16.20020616 39.6554498 -15.52564681 37.99830409 -14.85131836 36.34106445 C-12.90457239 31.55919855 -10.95269653 26.77943831 -9 22 C-8.47309282 20.70933101 -7.94623361 19.41864243 -7.41943359 18.12792969 C-4.9516726 12.08307082 -2.47922306 6.04016676 0 0 Z " fill="#1682B3" transform="translate(1054,295)"/>
<path d="M0 0 C14.85 0 29.7 0 45 0 C45 4.29 45 8.58 45 13 C35.1 13 25.2 13 15 13 C15 17.62 15 22.24 15 27 C23.91 27 32.82 27 42 27 C42 31.29 42 35.58 42 40 C33.09 40 24.18 40 15 40 C15 44.95 15 49.9 15 55 C25.23 55 35.46 55 46 55 C46 59.29 46 63.58 46 68 C30.82 68 15.64 68 0 68 C0 45.56 0 23.12 0 0 Z " fill="#166191" transform="translate(578,295)"/>
<path d="M0 0 C14.52 0 29.04 0 44 0 C44 4.29 44 8.58 44 13 C34.1 13 24.2 13 14 13 C14 17.62 14 22.24 14 27 C23.24 27 32.48 27 42 27 C42 31.29 42 35.58 42 40 C32.76 40 23.52 40 14 40 C14 44.95 14 49.9 14 55 C24.23 55 34.46 55 45 55 C45 59.29 45 63.58 45 68 C30.15 68 15.3 68 0 68 C0 45.56 0 23.12 0 0 Z " fill="#1A3F70" transform="translate(795,295)"/>
<path d="M0 0 C1.87705227 1.39949833 3.66434792 2.8267551 5.3984375 4.3984375 C4.04607173 7.33723234 2.49901091 9.69076661 0.3984375 12.1484375 C-0.1171875 12.76203125 -0.6328125 13.375625 -1.1640625 14.0078125 C-2.6015625 15.3984375 -2.6015625 15.3984375 -4.6015625 15.3984375 C-4.6015625 14.7384375 -4.6015625 14.0784375 -4.6015625 13.3984375 C-6.26141048 12.71497068 -7.92993055 12.05255435 -9.6015625 11.3984375 C-10.87 10.8415625 -10.87 10.8415625 -12.1640625 10.2734375 C-19.44531623 8.42002746 -26.27682453 8.19521293 -33.0390625 11.7734375 C-38.93676596 15.81920509 -41.77060688 20.93897568 -43.0703125 27.9140625 C-43.4877183 34.55081479 -41.42889758 40.01535274 -37.6015625 45.3984375 C-31.67720746 51.05055741 -25.92898153 51.78324737 -18.04296875 51.765625 C-13.58143111 51.28959261 -10.43913913 49.77306804 -6.625 47.4921875 C-4.6015625 46.3984375 -4.6015625 46.3984375 -1.6015625 46.3984375 C0.44140625 47.9296875 0.44140625 47.9296875 2.5859375 49.8984375 C3.30136719 50.548125 4.01679687 51.1978125 4.75390625 51.8671875 C5.29660156 52.3725 5.83929687 52.8778125 6.3984375 53.3984375 C4.22494736 58.61256152 0.25212506 60.81607318 -4.6015625 63.3984375 C-14.39075769 67.27663118 -25.60355265 68.01990034 -35.6015625 64.3984375 C-44.9009102 59.91354408 -52.15639469 53.78268066 -56.6015625 44.3984375 C-59.91863143 34.61308414 -59.86245939 23.89068467 -55.6015625 14.3984375 C-50.262976 4.6471982 -43.23493027 -0.87568694 -32.64453125 -4.05859375 C-31.63326172 -4.32736328 -31.63326172 -4.32736328 -30.6015625 -4.6015625 C-29.95703125 -4.78460938 -29.3125 -4.96765625 -28.6484375 -5.15625 C-18.9916169 -7.25716135 -8.36643029 -5.15050513 0 0 Z " fill="#1074A3" transform="translate(986.6015625,298.6015625)"/>
<path d="M0 0 C26 0 26 0 34 4 C38.94137278 9.32147838 39.34472736 12.90573609 39.28515625 20.01171875 C38.80981716 24.99301195 36.58239469 27.60941073 32.9375 30.8125 C31 32 31 32 28 33 C29.54273409 38.75272532 32.47708263 43.33096071 35.625 48.3125 C36.63984773 49.93245069 37.65296913 51.55348462 38.6640625 53.17578125 C39.11217285 53.88645752 39.5602832 54.59713379 40.02197266 55.3293457 C41 57 41 57 41 58 C37.51945074 58.56877059 34.46147135 58.75962949 31 58 C28.18299548 55.37376158 26.67775181 52.24563093 25 48.8125 C24.53722656 47.94818359 24.07445312 47.08386719 23.59765625 46.19335938 C21.48936643 42.20594167 19.63529034 38.20483321 18 34 C14.7 34 11.4 34 8 34 C8 41.92 8 49.84 8 58 C5.36 58 2.72 58 0 58 C0 38.86 0 19.72 0 0 Z " fill="#747576" transform="translate(800,401)"/>
<path d="M0 0 C18.15 0 36.3 0 55 0 C55 4.29 55 8.58 55 13 C48.4 13 41.8 13 35 13 C35 31.15 35 49.3 35 68 C30.05 68 25.1 68 20 68 C20 49.85 20 31.7 20 13 C13.4 13 6.8 13 0 13 C0 8.71 0 4.42 0 0 Z " fill="#223866" transform="translate(514,295)"/>
<path d="M0 0 C26 0 26 0 35 4 C39.84710578 9.53954946 40.75860048 13.91678967 40.41796875 21.2265625 C39.60365979 26.62992102 37.17599096 29.11200683 32.9375 32.3125 C29.36619637 34.36409996 26.81919379 35.12637726 22.76953125 35.09765625 C22.04612549 35.09515869 21.32271973 35.09266113 20.57739258 35.09008789 C19.20877075 35.07643188 19.20877075 35.07643188 17.8125 35.0625 C14.904375 35.041875 11.99625 35.02125 9 35 C9 42.59 9 50.18 9 58 C6.03 58 3.06 58 0 58 C0 38.86 0 19.72 0 0 Z " fill="#7A7B7C" transform="translate(704,401)"/>
<path d="M0 0 C2.97 0 5.94 0 9 0 C14.89584631 13.23027194 20.68750984 26.50125558 26.3085022 39.85055542 C26.89468029 41.24227811 27.48206346 42.63349385 28.07064819 44.02420044 C28.89853755 45.98201645 29.72152398 47.94181655 30.54296875 49.90234375 C31.01758545 51.03148193 31.49220215 52.16062012 31.98120117 53.32397461 C33 56 33 56 33 58 C30.03 58 27.06 58 24 58 C21.525 52.06 21.525 52.06 19 46 C9.43 45.67 -0.14 45.34 -10 45 C-10.99 47.97 -11.98 50.94 -13 54 C-13.66 55.32 -14.32 56.64 -15 58 C-17.64 58 -20.28 58 -23 58 C-22.3908819 52.31393181 -20.32663062 47.53052699 -18.10546875 42.32421875 C-17.71684158 41.39962357 -17.32821442 40.47502838 -16.92781067 39.52241516 C-15.68705767 36.57486371 -14.43732048 33.63121637 -13.1875 30.6875 C-12.35815247 28.7196418 -11.52937061 26.75154509 -10.70117188 24.78320312 C-7.20483222 16.48913881 -3.67613662 8.2162405 0 0 Z " fill="#747475" transform="translate(1084,401)"/>
<path d="M0 0 C5.2216357 3.00378631 9.83744292 7.76232875 11.75 13.5 C12.44518154 20.75968156 12.67497383 26.92412697 8.1640625 32.921875 C3.22736767 38.43133553 -2.82859015 41.51466918 -10.25 41.9375 C-15.67907998 41.68201388 -20.06562422 39.53939509 -24.015625 35.8515625 C-29.6513676 29.58658651 -30.77622587 24.09514947 -30.625 15.73046875 C-29.97288479 10.11276789 -27.67147399 6.61415344 -23.46484375 2.94140625 C-16.61946732 -2.18899264 -7.98473401 -3.54703448 0 0 Z " fill="#FBFBFB" transform="translate(517.25,418.5)"/>
<path d="M0 0 C4.95 0 9.9 0 15 0 C15 17.82 15 35.64 15 54 C24.24 54 33.48 54 43 54 C43 58.62 43 63.24 43 68 C28.81 68 14.62 68 0 68 C0 45.56 0 23.12 0 0 Z " fill="#10679B" transform="translate(636,295)"/>
<path d="M0 0 C2.97 0 5.94 0 9 0 C11.48322036 2.51505652 12.96988355 4.42035384 14.75 7.375 C15.76632906 8.93613449 16.78462798 10.49598797 17.8046875 12.0546875 C18.32385742 12.86776367 18.84302734 13.68083984 19.37792969 14.51855469 C22.05979552 18.62127659 24.97365261 22.55099028 27.875 26.5 C32.07134676 32.24379811 36.04940484 38.07410725 40 44 C40.33 29.48 40.66 14.96 41 0 C43.64 0 46.28 0 49 0 C49 19.14 49 38.28 49 58 C40 58 40 58 37.13671875 55.31640625 C36.28960096 54.08568795 35.47469689 52.83238075 34.6875 51.5625 C34.23656982 50.89307373 33.78563965 50.22364746 33.32104492 49.53393555 C32.35861179 48.10506838 31.4077908 46.66832205 30.46777344 45.22460938 C28.01959446 41.51406265 25.40159922 37.92535966 22.8125 34.3125 C18.06520539 27.63188805 13.54917302 20.82375953 9 14 C8.67 28.52 8.34 43.04 8 58 C5.36 58 2.72 58 0 58 C0 38.86 0 19.72 0 0 Z " fill="#727373" transform="translate(920,401)"/>
<path d="M0 0 C11.88 0 23.76 0 36 0 C36 2.31 36 4.62 36 7 C27.09 7 18.18 7 9 7 C9 12.61 9 18.22 9 24 C16.92 24 24.84 24 33 24 C33 26.64 33 29.28 33 32 C25.08 32 17.16 32 9 32 C9 38.27 9 44.54 9 51 C17.91 51 26.82 51 36 51 C36 53.64 36 56.28 36 59 C24.12 59 12.24 59 0 59 C0 39.53 0 20.06 0 0 Z " fill="#7B7C7C" transform="translate(873,401)"/>
<path d="M0 0 C11.55 0 23.1 0 35 0 C35 2.64 35 5.28 35 8 C26.09 8 17.18 8 8 8 C8 13.28 8 18.56 8 24 C16.25 24 24.5 24 33 24 C33 26.64 33 29.28 33 32 C24.75 32 16.5 32 8 32 C8 38.27 8 44.54 8 51 C17.24 51 26.48 51 36 51 C36 53.31 36 55.62 36 58 C24.12 58 12.24 58 0 58 C0 38.86 0 19.72 0 0 Z " fill="#797A7B" transform="translate(605,401)"/>
<path d="M0 0 C2.55698063 1.42592379 4.30205558 3.11270909 6.26953125 5.265625 C5.06571677 7.75924071 3.81524403 9.94705583 2.26953125 12.265625 C0.3143519 11.31584422 -1.57850824 10.36223099 -3.4140625 9.1953125 C-9.57126377 5.49276385 -15.70921575 5.51400262 -22.73046875 6.265625 C-28.46882954 8.21256884 -32.27944272 11.79923209 -35.34375 17.0078125 C-37.99959519 23.24717838 -37.92342974 30.55419082 -35.8515625 37 C-32.73164429 43.13686882 -28.32959497 47.06591626 -21.73046875 49.265625 C-13.96217575 49.96764852 -8.35029426 49.38797089 -1.73046875 45.265625 C-0.40279252 44.58776214 0.92921828 43.91814579 2.26953125 43.265625 C3.97703105 44.54624985 5.64326721 45.88330057 7.26953125 47.265625 C7.26953125 47.925625 7.26953125 48.585625 7.26953125 49.265625 C0.46960011 55.75811244 -6.31696698 58.39149778 -15.60546875 58.703125 C-24.85022711 58.46607991 -32.16554837 55.87503048 -38.90234375 49.42578125 C-45.29631666 41.87050984 -47.62345964 34.35056669 -47.10546875 24.51953125 C-45.98150276 14.76678471 -42.07959319 8.86677716 -34.73046875 2.265625 C-24.20026369 -4.64539041 -11.46478757 -4.43798228 0 0 Z " fill="#747474" transform="translate(1026.73046875,402.734375)"/>
<path d="M0 0 C11.55 0 23.1 0 35 0 C35 2.64 35 5.28 35 8 C26.09 8 17.18 8 8 8 C8 13.61 8 19.22 8 25 C15.92 25 23.84 25 32 25 C32 27.31 32 29.62 32 32 C24.08 32 16.16 32 8 32 C8 38.27 8 44.54 8 51 C16.91 51 25.82 51 35 51 C35 53.31 35 55.62 35 58 C23.45 58 11.9 58 0 58 C0 38.86 0 19.72 0 0 Z " fill="#767778" transform="translate(754,401)"/>
<path d="M0 0 C0.33 13.2 0.66 26.4 1 40 C3.64 37.69 6.28 35.38 9 33 C11.57421875 31.2578125 11.57421875 31.2578125 13.6875 30.125 C14.74517578 29.54105469 14.74517578 29.54105469 15.82421875 28.9453125 C23.0869662 25.78986388 33.07281698 25.7521606 40.69921875 27.68359375 C42.94997278 28.63024597 44.93676058 29.69626013 47 31 C47.69609375 31.42410156 48.3921875 31.84820312 49.109375 32.28515625 C56.22641546 37.08782077 60.75882347 43.72802117 63 52 C64.11708869 63.69046301 62.82297688 72.63068235 55.375 81.8125 C51.26180964 86.15676847 46.67460789 89.07951196 41 91 C39.68 91 38.36 91 37 91 C37 89.02 37 87.04 37 85 C37.65226562 84.79246094 38.30453125 84.58492188 38.9765625 84.37109375 C47.27985092 81.44412335 51.33704769 77.5519086 55.375 69.8125 C57.95531967 63.41069423 58.20987315 56.80628234 56.1171875 50.22265625 C52.48796271 42.23115133 47.05048334 37.38916609 39 34 C28.37080653 32.8189785 20.04824496 33.83160551 11.4375 40.25 C4.94371728 45.57020753 -0.22224394 51.11441039 -5 58 C-5.33 58 -5.66 58 -6 58 C-6.10124221 50.22219941 -6.17139908 42.44456807 -6.21972656 34.66625977 C-6.23986848 32.01905975 -6.26718355 29.37190437 -6.30175781 26.72485352 C-6.35016051 22.92453005 -6.3729433 19.12479369 -6.390625 15.32421875 C-6.42159271 13.54285774 -6.42159271 13.54285774 -6.45318604 11.72550964 C-6.45348816 10.62459488 -6.45379028 9.52368011 -6.45410156 8.3894043 C-6.46298401 7.41899704 -6.47186646 6.44858978 -6.48101807 5.44877625 C-6 3 -6 3 -4.09661865 1.16316223 C-2 0 -2 0 0 0 Z " fill="#9A9A9B" transform="translate(267,263)"/>
<path d="M0 0 C4.95 0 9.9 0 15 0 C15 22.44 15 44.88 15 68 C10.05 68 5.1 68 0 68 C0 45.56 0 23.12 0 0 Z " fill="#1B6690" transform="translate(688,295)"/>
<path d="M0 0 C4.95 0 9.9 0 15 0 C15 22.44 15 44.88 15 68 C10.05 68 5.1 68 0 68 C0 45.56 0 23.12 0 0 Z " fill="#212F5E" transform="translate(411,295)"/>
<path d="M0 0 C3.69097974 -1.13085337 6.34271858 -1.32992052 10 0 C13.8250087 4.09452511 16.35321706 9.26813521 18.97607422 14.17773438 C20.14659802 16.26089834 21.56248774 18.09564292 23 20 C23 20.66 23 21.32 23 22 C25.90031524 19.54484943 27.66506258 16.97546034 29.4453125 13.671875 C29.88359375 12.87265625 30.321875 12.0734375 30.7734375 11.25 C31.67581361 9.58086499 32.55353012 7.89816574 33.40625 6.203125 C34.77837465 3.76026725 35.91993769 1.88395834 38 0 C41.45089203 -0.72418118 44.53138304 -0.53863167 48 0 C47.04415068 1.52239577 46.08506795 3.0427611 45.125 4.5625 C44.49851562 5.55765625 43.87203125 6.5528125 43.2265625 7.578125 C41.64083997 10.05517822 39.97916202 12.4634936 38.2734375 14.859375 C37.81437012 15.51478271 37.35530273 16.17019043 36.88232422 16.84545898 C35.97346017 18.13876836 35.0508894 19.42257221 34.11376953 20.69555664 C32.18511515 23.4654484 31.0258171 25.48435576 30.85546875 28.88671875 C32.51388716 33.39784323 35.07005355 37.07574368 37.8125 41 C38.34681641 41.78117187 38.88113281 42.56234375 39.43164062 43.3671875 C41.36785766 46.19649357 43.31365449 49.01883254 45.27880859 51.828125 C48 55.78098832 48 55.78098832 48 58 C44.76896278 58.77511193 42.21393845 58.91951747 39 58 C35.61493105 54.60339366 33.34412383 50.6249484 30.9375 46.5 C30.26267578 45.40300781 29.58785156 44.30601562 28.89257812 43.17578125 C27.23185412 40.46679882 25.6034443 37.7431427 24 35 C21.48874708 38.02273068 19.35831835 40.93631557 17.5546875 44.42578125 C17.11640625 45.22177734 16.678125 46.01777344 16.2265625 46.83789062 C15.32257564 48.49302263 14.44493052 50.16280506 13.59375 51.84570312 C12.22088068 54.27599924 11.08144522 56.13350512 9 58 C5.5503747 58.71807732 2.46698411 58.53453255 -1 58 C2.95849234 50.44597163 7.66383558 43.61581716 12.7109375 36.75390625 C13.278125 35.95339844 13.8453125 35.15289062 14.4296875 34.328125 C14.94772949 33.6155957 15.46577148 32.90306641 15.99951172 32.16894531 C17.33912002 29.2648262 17.03028533 28.00876267 16 25 C14.42008995 22.16610123 14.42008995 22.16610123 12.40234375 19.296875 C11.68369141 18.2346875 10.96503906 17.1725 10.22460938 16.078125 C9.46263025 14.96848164 8.70025562 13.85910976 7.9375 12.75 C6.44324287 10.55955848 4.95384046 8.3659043 3.46484375 6.171875 C2.800896 5.2034668 2.13694824 4.23505859 1.45288086 3.23730469 C0 1 0 1 0 0 Z " fill="#787979" transform="translate(647,401)"/>
<path d="M0 0 C4.62 0 9.24 0 14 0 C14 22.44 14 44.88 14 68 C9.38 68 4.76 68 0 68 C0 45.56 0 23.12 0 0 Z " fill="#187EAB" transform="translate(1004,295)"/>
<path d="M0 0 C7 0 7 0 8.6809082 1.29760742 C9.05046631 1.89420166 9.42002441 2.4907959 9.80078125 3.10546875 C10.43016602 4.08676758 10.43016602 4.08676758 11.07226562 5.08789062 C11.48154297 5.78076172 11.89082031 6.47363281 12.3125 7.1875 C12.74111328 7.86103516 13.16972656 8.53457031 13.61132812 9.22851562 C15.78684453 12.70730551 17.63376056 16.11263363 19 20 C21.7103595 17.63232964 23.56282666 15.20603338 25.33203125 12.109375 C25.73873047 11.40039062 26.14542969 10.69140625 26.56445312 9.9609375 C27.40038759 8.48006456 28.22064267 6.99023684 29.02539062 5.4921875 C29.43595703 4.78835938 29.84652344 4.08453125 30.26953125 3.359375 C30.62635986 2.71452148 30.98318848 2.06966797 31.35083008 1.40527344 C33 0 33 0 40 0 C40 13.2 40 26.4 40 40 C38.35 40 36.7 40 35 40 C34.67 30.1 34.34 20.2 34 10 C29.80404208 16.57712534 29.80404208 16.57712534 25.62353516 23.1640625 C24.83922119 24.38222656 24.83922119 24.38222656 24.0390625 25.625 C23.50490723 26.46289062 22.97075195 27.30078125 22.42041016 28.1640625 C21.9516748 28.76992188 21.48293945 29.37578125 21 30 C20.34 30 19.68 30 19 30 C17.77905273 28.36352539 17.77905273 28.36352539 16.43359375 26.09765625 C15.94826172 25.29005859 15.46292969 24.48246094 14.96289062 23.65039062 C14.20782227 22.36938477 14.20782227 22.36938477 13.4375 21.0625 C12.4372475 19.38609206 11.43599767 17.71027865 10.43359375 16.03515625 C9.99072021 15.2862915 9.54784668 14.53742676 9.09155273 13.76586914 C8.12072784 12.0441682 8.12072784 12.0441682 7 11 C6.67 20.9 6.34 30.8 6 41 C4.02 41 2.04 41 0 41 C0 27.47 0 13.94 0 0 Z " fill="#787979" transform="translate(537,418)"/>
<path d="M0 0 C5.2216357 3.00378631 9.83744292 7.76232875 11.75 13.5 C12.44518154 20.75968156 12.67497383 26.92412697 8.1640625 32.921875 C3.22736767 38.43133553 -2.82859015 41.51466918 -10.25 41.9375 C-15.67907998 41.68201388 -20.06562422 39.53939509 -24.015625 35.8515625 C-29.6513676 29.58658651 -30.77622587 24.09514947 -30.625 15.73046875 C-29.97288479 10.11276789 -27.67147399 6.61415344 -23.46484375 2.94140625 C-16.61946732 -2.18899264 -7.98473401 -3.54703448 0 0 Z M-22.25 9.5 C-25.31225431 14.41236629 -24.84910612 19.91333545 -24.25 25.5 C-21.98430831 30.37995132 -19.07626694 33.13239735 -14.25 35.5 C-8.90724061 36.45545697 -4.30121791 35.84886521 0.2421875 32.81640625 C3.79249599 29.71678459 5.42944764 26.58524267 6.12890625 22.03515625 C6.44429516 15.2695554 4.59171861 11.79639359 0.1875 6.6875 C-3.58091401 3.57446234 -8.67114463 4.11490552 -13.29296875 4.1484375 C-17.79866512 4.68412135 -19.31312119 6.09940348 -22.25 9.5 Z " fill="#7A7B7B" transform="translate(517.25,418.5)"/>
<path d="M0 0 C2.97 0 5.94 0 9 0 C9 19.47 9 38.94 9 59 C6.03 59 3.06 59 0 59 C0 39.53 0 20.06 0 0 Z " fill="#7D7E7F" transform="translate(850,401)"/>
<path d="M0 0 C1.8125 1.16796875 1.8125 1.16796875 3.8125 4.16796875 C2.5625 5.73046875 2.5625 5.73046875 0.8125 7.16796875 C-1.48695473 6.94544087 -3.00562699 6.27039402 -5.01171875 5.140625 C-8.94182556 3.38371908 -12.97592937 3.63570074 -17.1875 4.16796875 C-21.02128636 5.98030412 -22.72101018 7.46823402 -25.0625 10.98046875 C-26.86711226 16.09353681 -26.65535328 19.71516119 -25 24.85546875 C-22.76977554 28.9313962 -20.31428055 31.10457847 -16.1875 33.16796875 C-9.70166238 33.95924094 -6.60282163 32.8602335 -1.1875 29.16796875 C1.6875 29.91796875 1.6875 29.91796875 3.8125 31.16796875 C2.04813447 35.43185211 -0.36213464 37.14791164 -4.3125 39.35546875 C-10.13842287 41.00192521 -15.92989679 41.07483384 -21.5 38.54296875 C-27.24897831 35.22803367 -30.63542722 30.45767642 -32.67578125 24.23046875 C-34.38386185 17.3459912 -33.12409826 12.63397525 -29.8203125 6.5078125 C-22.48401027 -4.0052139 -11.03019079 -5.14085678 0 0 Z " fill="#7D7D7D" transform="translate(479.1875,419.83203125)"/>
<path d="M0 0 C3.71466132 4.06565294 5.14156549 8.23198101 5.0625 13.6875 C5.05347656 14.49574219 5.04445312 15.30398438 5.03515625 16.13671875 C5.02355469 16.75160156 5.01195312 17.36648438 5 18 C4.52433594 17.71125 4.04867187 17.4225 3.55859375 17.125 C-2.92805174 13.68456924 -8.50844323 13.81663237 -15.64453125 14.34765625 C-19 14 -19 14 -21.44921875 11.62109375 C-23 9 -23 9 -23 7 C-23.86625 6.566875 -23.86625 6.566875 -24.75 6.125 C-26.83333333 5.08333333 -28.91666667 4.04166667 -31 3 C-29.71079768 -1.01085165 -27.27009228 -2.32610671 -23.72265625 -4.18359375 C-14.76839159 -8.42722485 -7.44633853 -5.81209786 0 0 Z " fill="#F8F8F8" transform="translate(240,288)"/>
<path d="M0 0 C2.64 0 5.28 0 8 0 C8 19.14 8 38.28 8 58 C5.36 58 2.72 58 0 58 C0 38.86 0 19.72 0 0 Z " fill="#717273" transform="translate(1043,401)"/>
<path d="M0 0 C4.95 0 9.9 0 15 0 C15 17.82 15 35.64 15 54 C24.24 54 33.48 54 43 54 C43 58.62 43 63.24 43 68 C28.81 68 14.62 68 0 68 C0 45.56 0 23.12 0 0 Z M3.2928009 3.66319275 C1.70805103 6.52771349 1.62561898 8.37315495 1.62768555 11.63891602 C1.62145676 12.77011368 1.61522797 13.90131134 1.60881042 15.06678772 C1.61802017 16.28353683 1.62722992 17.50028595 1.63671875 18.75390625 C1.63622025 20.006306 1.63572174 21.25870575 1.63520813 22.54905701 C1.63754865 25.19634796 1.64569694 27.84283844 1.66381836 30.48999023 C1.68652862 33.88186454 1.68704399 37.27329366 1.68030071 40.66522312 C1.67615564 43.90315105 1.68813168 47.14099994 1.69921875 50.37890625 C1.69830734 51.5976796 1.69739594 52.81645294 1.69645691 54.07215881 C1.70598892 55.20020432 1.71552094 56.32824982 1.7253418 57.49047852 C1.72994919 58.48435074 1.73455658 59.47822296 1.73930359 60.50221252 C1.83020541 63.24941638 1.83020541 63.24941638 4 66 C6.83727325 66.26667539 9.45383045 66.34791234 12.2890625 66.29296875 C13.10748627 66.28872391 13.92591003 66.28447906 14.76913452 66.28010559 C17.38808836 66.26328679 20.00627802 66.22562974 22.625 66.1875 C24.3984264 66.17245726 26.17186484 66.15876814 27.9453125 66.14648438 C32.2971703 66.11337292 36.64845551 66.06156952 41 66 C41 62.7 41 59.4 41 56 C32.09 55.67 23.18 55.34 14 55 C13.93941406 51.34164062 13.87882813 47.68328125 13.81640625 43.9140625 C13.75465202 40.38279071 13.69124975 36.85155211 13.62768555 33.3203125 C13.58429221 30.86038141 13.54262044 28.40041935 13.50268555 25.94042969 C13.44508943 22.41071216 13.38136443 18.88115124 13.31640625 15.3515625 C13.29969376 14.24632233 13.28298126 13.14108215 13.26576233 12.00234985 C13.24581711 10.98144257 13.22587189 9.96053528 13.20532227 8.90869141 C13.18977798 8.00712311 13.1742337 7.10555481 13.15821838 6.17666626 C13.13564908 3.95363699 13.13564908 3.95363699 12 2 C7.20703135 1.40502945 7.20703135 1.40502945 3.2928009 3.66319275 Z " fill="#397592" transform="translate(636,295)"/>
<path d="M0 0 C2.536875 -0.061875 5.07375 -0.12375 7.6875 -0.1875 C8.47729248 -0.21481201 9.26708496 -0.24212402 10.08081055 -0.27026367 C14.61476924 -0.32357739 17.43712454 0.16424198 21 3 C23.48386059 6.72579089 23.3804212 8.58711402 23 13 C21.79076721 15.72077379 20.84069409 17.40450835 18.40625 19.12890625 C14.88738278 20.40278188 11.43701587 20.20903243 7.75 20.125 C5.1925 20.08375 2.635 20.0425 0 20 C0 13.4 0 6.8 0 0 Z " fill="#FCFCFC" transform="translate(713,409)"/>
<path d="M0 0 C3.526875 -0.12375 3.526875 -0.12375 7.125 -0.25 C7.85348145 -0.28641602 8.58196289 -0.32283203 9.33251953 -0.36035156 C14.40007317 -0.44556673 17.13527027 0.81188467 21 4 C23.33909307 7.5086396 23.41291057 8.87089433 23 13 C21.78504751 15.67289548 20.81031577 17.42404026 18.40625 19.1328125 C14.88688817 20.40115394 11.43600942 20.20900949 7.75 20.125 C5.1925 20.08375 2.635 20.0425 0 20 C0 13.4 0 6.8 0 0 Z " fill="#F7F7F7" transform="translate(808,408)"/>
<path d="M0 0 C2.30625434 2.84496844 3.75137835 5.49305812 5.04296875 8.9140625 C5.39423828 9.83960938 5.74550781 10.76515625 6.10742188 11.71875 C6.64206055 13.15734375 6.64206055 13.15734375 7.1875 14.625 C7.55552734 15.59179688 7.92355469 16.55859375 8.30273438 17.5546875 C11 24.72070675 11 24.72070675 11 27 C5.72 27 0.44 27 -5 27 C-5.309375 28.60875 -5.61875 30.2175 -5.9375 31.875 C-6.875 36.75 -6.875 36.75 -8 39 C-0.08 39 7.84 39 16 39 C16 39.33 16 39.66 16 40 C7.75 40 -0.5 40 -9 40 C-9.33 38.02 -9.66 36.04 -10 34 C-11.32 35.32 -12.64 36.64 -14 38 C-11.09726133 24.81672856 -5.3396571 12.34795704 0 0 Z " fill="#F0FCFD" transform="translate(1062,311)"/>
<path d="M0 0 C14.52 0 29.04 0 44 0 C44 4.29 44 8.58 44 13 C34.1 13 24.2 13 14 13 C14 17.29 14 21.58 14 26 C13.67 26 13.34 26 13 26 C13 21.38 13 16.76 13 12 C22.9 11.67 32.8 11.34 43 11 C43 8.03 43 5.06 43 2 C29.47 2 15.94 2 2 2 C2 23.12 2 44.24 2 66 C15.86 66 29.72 66 44 66 C43.92091092 58.71626405 43.92091092 58.71626405 42 57 C40.00217874 56.84174742 37.99911166 56.74880829 35.99609375 56.68359375 C34.17368164 56.62075195 34.17368164 56.62075195 32.31445312 56.55664062 C30.39536133 56.49766602 30.39536133 56.49766602 28.4375 56.4375 C27.15423828 56.39431641 25.87097656 56.35113281 24.54882812 56.30664062 C21.36600147 56.200152 18.18309326 56.09814038 15 56 C15 55.67 15 55.34 15 55 C24.9 55 34.8 55 45 55 C45 59.29 45 63.58 45 68 C30.15 68 15.3 68 0 68 C0 45.56 0 23.12 0 0 Z " fill="#254161" transform="translate(795,295)"/>
<path d="M0 0 C7.09920931 2.47908897 11.40160849 9.12664005 15.4453125 15.203125 C15.4453125 15.863125 15.4453125 16.523125 15.4453125 17.203125 C4.9143708 18.2766676 4.9143708 18.2766676 1.3125 15.64453125 C-0.14623805 13.89334089 -1.40959018 12.17188881 -2.5546875 10.203125 C-5.49151116 11.49099439 -6.40612058 11.9431329 -8.0546875 14.828125 C-11.21280186 17.82833365 -12.54122498 17.53063719 -16.8046875 17.515625 C-18.72250269 17.43533369 -20.63997906 17.33859965 -22.5546875 17.203125 C-21.1629138 15.28624986 -19.75171436 13.39140055 -18.3046875 11.515625 C-16.54049563 9.24230027 -16.54049563 9.24230027 -15.0546875 6.890625 C-10.98255271 1.1896363 -7.00517617 -0.3575728 0 0 Z " fill="#194B75" transform="translate(820.5546875,271.796875)"/>
<path d="M0 0 C0.66 0 1.32 0 2 0 C3.6750644 4.10078931 5.33860345 8.20615636 7 12.3125 C7.47695312 13.47974609 7.95390625 14.64699219 8.4453125 15.84960938 C8.89648438 16.96787109 9.34765625 18.08613281 9.8125 19.23828125 C10.23144531 20.26993408 10.65039062 21.30158691 11.08203125 22.36450195 C12 25 12 25 12 28 C5.07 28 -1.86 28 -9 28 C-8.3091016 23.16371123 -7.84026359 20.03622916 -6.15234375 15.72265625 C-5.79462891 14.79775391 -5.43691406 13.87285156 -5.06835938 12.91992188 C-4.50858398 11.50549805 -4.50858398 11.50549805 -3.9375 10.0625 C-3.56044922 9.09248047 -3.18339844 8.12246094 -2.79492188 7.12304688 C-1.86987534 4.74602857 -0.93810818 2.37188683 0 0 Z " fill="#F8F8F8" transform="translate(1087,411)"/>
<path d="M0 0 C4.95 0 9.9 0 15 0 C15 22.44 15 44.88 15 68 C10.05 68 5.1 68 0 68 C0 45.56 0 23.12 0 0 Z M2 2 C2 23.12 2 44.24 2 66 C5.63 66 9.26 66 13 66 C13 44.88 13 23.76 13 2 C9.37 2 5.74 2 2 2 Z " fill="#3D4865" transform="translate(411,295)"/>
<path d="M0 0 C14.85 0 29.7 0 45 0 C45 4.29 45 8.58 45 13 C35.1 13 25.2 13 15 13 C15 17.62 15 22.24 15 27 C14.67 27 14.34 27 14 27 C14 22.05 14 17.1 14 12 C20.43968348 11.05920819 26.59045084 10.94269981 33.08398438 11.12695312 C36.95276357 11.18572814 38.69796806 11.20135463 42 9 C42 7.02 42 5.04 42 3 C21.705 2.505 21.705 2.505 1 2 C1 23.45 1 44.9 1 67 C15.52 67 30.04 67 45 67 C45 63.04 45 59.08 45 55 C45.33 55 45.66 55 46 55 C46 59.29 46 63.58 46 68 C30.82 68 15.64 68 0 68 C0 45.56 0 23.12 0 0 Z " fill="#437590" transform="translate(578,295)"/>
<path d="M0 0 C1.4540625 0.0309375 1.4540625 0.0309375 2.9375 0.0625 C9.19453958 14.06390824 14.01712157 25.39296401 8.41183472 40.25483704 C8.06710114 41.14656113 7.72236755 42.03828522 7.3671875 42.95703125 C7.0078714 43.90325851 6.6485553 44.84948578 6.27835083 45.8243866 C5.12981488 48.84388064 3.97127767 51.85942366 2.8125 54.875 C2.05664283 56.85847682 1.3014288 58.84219886 0.546875 60.82617188 C-3.93498522 72.59278828 -8.48252489 84.33376519 -13.0625 96.0625 C-13.3925 96.0625 -13.7225 96.0625 -14.0625 96.0625 C-14.44294374 92.00443349 -13.37184016 89.07048432 -11.92016602 85.31835938 C-10.47695899 81.52239213 -9.21574043 77.66649124 -7.9375 73.8125 C-7.67324219 73.02359375 -7.40898437 72.2346875 -7.13671875 71.421875 C-6.88277344 70.65875 -6.62882812 69.895625 -6.3671875 69.109375 C-6.14015137 68.42713867 -5.91311523 67.74490234 -5.67919922 67.04199219 C-5.02208589 65.04474719 -5.02208589 65.04474719 -4.60595703 62.87207031 C-4.42661621 62.27491211 -4.24727539 61.67775391 -4.0625 61.0625 C-3.0725 60.5675 -3.0725 60.5675 -2.0625 60.0625 C-0.38659927 56.1744103 0.83632628 52.95620121 1.3125 48.75 C2.31821185 42.81630011 5.0328227 37.2754405 8.09765625 32.10546875 C10.72820923 25.7064957 7.58510307 19.30692498 5.4375 13.1875 C5.10363281 12.21296875 4.76976562 11.2384375 4.42578125 10.234375 C3.6044627 7.84081808 2.77485349 5.45048455 1.9375 3.0625 C0.2875 2.7325 -1.3625 2.4025 -3.0625 2.0625 C-3.124375 3.01125 -3.18625 3.96 -3.25 4.9375 C-3.96647307 10.07924788 -6.36424575 14.67468468 -9.0625 19.0625 C-9.7225 19.3925 -10.3825 19.7225 -11.0625 20.0625 C-4.69631959 0.09584326 -4.69631959 0.09584326 0 0 Z " fill="#2984AB" transform="translate(353.0625,363.9375)"/>
<path d="M0 0 C9.57 0 19.14 0 29 0 C29 14.52 29 29.04 29 44 C28.34 43.67 27.68 43.34 27 43 C27 29.8 27 16.6 27 3 C15.22366005 1.24332274 15.22366005 1.24332274 3 3 C3 16.53 3 30.06 3 44 C2.01 44.495 2.01 44.495 1 45 C-0.03485633 39.90807713 -0.13009967 35.05052659 -0.09765625 29.8828125 C-0.0962413 29.02565643 -0.09482635 28.16850037 -0.09336853 27.28536987 C-0.08780022 24.5652101 -0.07525364 21.84513462 -0.0625 19.125 C-0.0574809 17.27343869 -0.05291871 15.42187609 -0.04882812 13.5703125 C-0.03869485 9.04681691 -0.01911339 4.52350209 0 0 Z " fill="#2088B1" transform="translate(265,365)"/>
<path d="M0 0 C0 3 0 3 -1.875 4.9375 C-2.57625 5.618125 -3.2775 6.29875 -4 7 C-5.23512079 9.13309192 -5.23512079 9.13309192 -6 11 C-6.66 11 -7.32 11 -8 11 C-11.1244899 21.82412573 -12.58995291 32.05736278 -9 43 C-8.02675513 44.3529864 -7.02827165 45.68834639 -6 47 C-5.67 47.99 -5.34 48.98 -5 50 C3.89034475 59.61118351 13.01832394 61.44471002 25.87890625 62.16015625 C27.91984029 62.18308809 29.96157057 62.10364895 32 62 C32.33 61.67 32.66 61.34 33 61 C35.33297433 60.95907063 37.66705225 60.95758277 40 61 C35.84630333 65.15369667 29.12810578 65.13917935 23.5 65.25 C12.16645443 64.96626729 3.44080903 61.45185728 -4.875 53.5625 C-12.32308383 45.57114417 -14.48458008 36.73476349 -14.2421875 26.015625 C-13.51125171 16.91429554 -9.90204207 9.91744716 -4 3 C-1.77734375 1.21484375 -1.77734375 1.21484375 0 0 Z " fill="#29728F" transform="translate(942,300)"/>
<path d="M0 0 C3.15138275 2.62353341 4.30790074 5.64206445 5.84765625 9.390625 C6.23370277 10.32488312 6.23370277 10.32488312 6.62754822 11.27801514 C7.16973534 12.59452453 7.70827943 13.9125394 8.2434082 15.23193359 C9.05538848 17.23247874 9.8791939 19.22781682 10.70507812 21.22265625 C13.12392043 27.11545632 15.24343692 32.85202921 17 39 C11.72 39 6.44 39 1 39 C-4 28.25 -4 28.25 -4 26 C-11.92 26 -19.84 26 -28 26 C-27.01 22.04 -26.02 18.08 -25 14 C-19.72 14 -14.44 14 -9 14 C-9 14.33 -9 14.66 -9 15 C-13.95 15 -18.9 15 -24 15 C-24.33 17.97 -24.66 20.94 -25 24 C-23.51886719 23.96519531 -22.03773437 23.93039062 -20.51171875 23.89453125 C-18.57032382 23.86639509 -16.62891665 23.83909475 -14.6875 23.8125 C-13.71103516 23.78736328 -12.73457031 23.76222656 -11.72851562 23.73632812 C-10.79072266 23.72666016 -9.85292969 23.71699219 -8.88671875 23.70703125 C-8.02264404 23.6913208 -7.15856934 23.67561035 -6.26831055 23.65942383 C-3.50743585 24.07395619 -2.68453359 24.81955232 -1 27 C0.23600221 29.94504231 1.06795343 32.93756127 2 36 C5.96 36.33 9.92 36.66 14 37 C13.401875 35.659375 12.80375 34.31875 12.1875 32.9375 C8.96768819 25.68445024 5.90726395 18.38352749 3 11 C2.69578125 10.236875 2.3915625 9.47375 2.078125 8.6875 C0.89546747 5.65275616 0 3.28689034 0 0 Z " fill="#277B9B" transform="translate(1082,324)"/>
<path d="M0 0 C1.18771723 3.42943519 0.80226223 5.37784675 -0.4375 8.75 C-0.86869141 9.94882812 -0.86869141 9.94882812 -1.30859375 11.171875 C-1.53675781 11.77515625 -1.76492188 12.3784375 -2 13 C-2.66 13 -3.32 13 -4 13 C-4 14.65 -4 16.3 -4 18 C-4.66 18 -5.32 18 -6 18 C-5.95875 18.721875 -5.9175 19.44375 -5.875 20.1875 C-6.00921305 23.20729369 -6.75170619 25.26935729 -8 28 C-8.66 28 -9.32 28 -10 28 C-10.0928125 29.3303125 -10.0928125 29.3303125 -10.1875 30.6875 C-10.87886606 35.66940247 -12.88013537 40.17657541 -14.74609375 44.81640625 C-15.5357311 46.82124875 -16.26758199 48.85077352 -16.9140625 50.90625 C-18.26992981 54.76900868 -20.06403256 58.30400442 -21.9375 61.9375 C-26.14653699 70.14473168 -29.46475319 78.23167768 -32.03515625 87.109375 C-33 90 -33 90 -35 93 C-35.66 93 -36.32 93 -37 93 C-34.93002164 85.44343248 -32.18274618 78.33106908 -29.125 71.125 C-28.06663057 68.60122238 -27.01017688 66.07673546 -25.95703125 63.55078125 C-25.6632811 62.84666611 -25.36953094 62.14255096 -25.06687927 61.417099 C-19.72237307 48.56468035 -14.5658397 35.63427882 -9.36700439 22.72247314 C-8.43853803 20.41661995 -7.50980236 18.11087518 -6.58076477 15.80525208 C-5.72252731 13.67511375 -4.86506469 11.54466304 -4.00846863 9.41386414 C-3.62644791 8.46558243 -3.24442719 7.51730072 -2.85083008 6.5402832 C-2.5161824 5.70841995 -2.18153473 4.8765567 -1.83674622 4.01948547 C-1.27287715 2.6585885 -0.65878508 1.31757016 0 0 Z " fill="#2C89AB" transform="translate(341,385)"/>
<path d="M0 0 C18.15 0 36.3 0 55 0 C55 4.29 55 8.58 55 13 C48.4 13 41.8 13 35 13 C35 12.67 35 12.34 35 12 C40.94 11.67 46.88 11.34 53 11 C53 8.03 53 5.06 53 2 C35.84 2 18.68 2 1 2 C1.33 4.97 1.66 7.94 2 11 C2.79664063 10.98839844 3.59328125 10.97679687 4.4140625 10.96484375 C14.93848858 10.87521968 14.93848858 10.87521968 20 12 C20 12.33 20 12.66 20 13 C13.4 13 6.8 13 0 13 C0 8.71 0 4.42 0 0 Z " fill="#334263" transform="translate(514,295)"/>
<path d="M0 0 C5.66296221 1.85011549 9.41470549 7.17225422 12.75 11.8984375 C12.75 12.5584375 12.75 13.2184375 12.75 13.8984375 C9.6875 14.3359375 9.6875 14.3359375 5.75 13.8984375 C3.66184128 12.23208684 1.9791217 10.44644056 0.23046875 8.4296875 C-0.25808594 7.924375 -0.74664063 7.4190625 -1.25 6.8984375 C-1.91 6.8984375 -2.57 6.8984375 -3.25 6.8984375 C-4.16172162 8.03663774 -5.03048795 9.20951551 -5.875 10.3984375 C-8.60845498 13.7611284 -8.60845498 13.7611284 -11.421875 14.36328125 C-13.625 14.3359375 -13.625 14.3359375 -17.25 13.8984375 C-15.78230976 11.92684027 -14.3088091 9.96176974 -12.8125 8.01171875 C-11.12657424 5.81135431 -11.12657424 5.81135431 -9.5 2.8984375 C-6.39780894 0.14093434 -4.09871051 -0.15858106 0 0 Z " fill="#787879" transform="translate(892.25,382.1015625)"/>
<path d="M0 0 C3.96 0 7.92 0 12 0 C12 0.33 12 0.66 12 1 C11.04287109 1.16435547 11.04287109 1.16435547 10.06640625 1.33203125 C9.24011719 1.49058594 8.41382813 1.64914062 7.5625 1.8125 C6.73878906 1.96332031 5.91507813 2.11414063 5.06640625 2.26953125 C4.38449219 2.51058594 3.70257812 2.75164062 3 3 C1.98001835 6.05994496 1.87325645 8.13847657 1.87060547 11.34179688 C1.86745331 12.43302856 1.86430115 13.52426025 1.86105347 14.64855957 C1.8630777 15.82672241 1.86510193 17.00488525 1.8671875 18.21875 C1.86623077 19.42817261 1.86527405 20.63759521 1.86428833 21.88366699 C1.86360738 24.44246472 1.86545574 27.00126418 1.86962891 29.56005859 C1.87497831 33.48408883 1.86968099 37.40800459 1.86328125 41.33203125 C1.86394205 43.81510442 1.86522324 46.29817752 1.8671875 48.78125 C1.86516327 49.95941284 1.86313904 51.13757568 1.86105347 52.35144043 C1.86420563 53.44267212 1.86735779 54.53390381 1.87060547 55.65820312 C1.87140106 56.61956177 1.87219666 57.58092041 1.87301636 58.57141113 C1.89934736 61.14180913 1.89934736 61.14180913 3 64 C5.91652174 64.16681109 5.91652174 64.16681109 9 64 C11.43058977 62.016334 11.43058977 62.016334 11.1953125 58.14868164 C11.18142345 56.48573268 11.15726688 54.82285015 11.125 53.16015625 C11.11742676 52.28225937 11.10985352 51.40436249 11.10205078 50.49986267 C11.06927147 46.7351132 11.01304327 42.97079319 10.95898438 39.20629883 C10.9228878 36.46177159 10.89865122 33.71731434 10.875 30.97265625 C10.85840332 30.11946304 10.84180664 29.26626984 10.82470703 28.38722229 C10.77438759 22.33841862 10.77438759 22.33841862 13 19 C13 34.51 13 50.02 13 66 C8.71 66 4.42 66 0 66 C0 44.22 0 22.44 0 0 Z " fill="#153C62" transform="translate(853,296)"/>
<path d="M0 0 C0.33 0 0.66 0 1 0 C0.71311275 7.00004889 -0.50404312 11.91026866 -4 18 C0.95 18 5.9 18 11 18 C10.67 15.36 10.34 12.72 10 10 C12 13 12 13 14 20 C8.72 20 3.44 20 -2 20 C-2.309375 21.60875 -2.61875 23.2175 -2.9375 24.875 C-3.875 29.75 -3.875 29.75 -5 32 C2.92 32 10.84 32 19 32 C19 32.33 19 32.66 19 33 C10.75 33 2.5 33 -6 33 C-6.33 31.02 -6.66 29.04 -7 27 C-8.32 28.32 -9.64 29.64 -11 31 C-8.62712214 20.22317974 -4.2003464 10.16116505 0 0 Z " fill="#D1F2F8" transform="translate(1059,318)"/>
<path d="M0 0 C1.65513635 4.03122167 0.2004416 7.30639508 -1.1875 11.1875 C-1.53107544 12.18245483 -1.53107544 12.18245483 -1.8815918 13.19750977 C-3.65976322 18.26082979 -5.7019089 23.14847434 -8 28 C-8.66 28 -9.32 28 -10 28 C-10.09796875 28.54527344 -10.1959375 29.09054687 -10.296875 29.65234375 C-11.60920319 36.27055056 -13.99430407 41.98860814 -17 48 C-13.04 48.33 -9.08 48.66 -5 49 C-4.67 46.69 -4.34 44.38 -4 42 C-3.34 42 -2.68 42 -2 42 C-1.67 40.35 -1.34 38.7 -1 37 C0.67728533 42.03185599 -2.12647977 46.17426609 -4 51 C-9.28 51 -14.56 51 -20 51 C-18.04284135 44.96477474 -15.90239035 39.07214882 -13.49609375 33.203125 C-13.17214127 32.40646423 -12.84818878 31.60980347 -12.51441956 30.78900146 C-11.49142716 28.27491282 -10.46456415 25.76242759 -9.4375 23.25 C-8.74517935 21.55088853 -8.05311988 19.85167062 -7.36132812 18.15234375 C-6.09465016 15.04132289 -4.8262566 11.9310122 -3.55639648 8.82128906 C-2.35867426 5.88568923 -1.17232367 2.94585756 0 0 Z " fill="#3485A2" transform="translate(1047,312)"/>
<path d="M0 0 C0.33 0 0.66 0 1 0 C1 22.44 1 44.88 1 68 C-1.98233118 65.01766882 -1.37634867 61.68667054 -1.44921875 57.6796875 C-1.47140976 56.83628815 -1.49360077 55.99288879 -1.51646423 55.12393188 C-1.58461572 52.37441528 -1.63703721 49.62489424 -1.6875 46.875 C-1.70746033 45.9476001 -1.72742065 45.0202002 -1.74798584 44.06469727 C-2.05479383 29.71044396 -2.2884654 15.31628227 -1 1 C-0.67 0.67 -0.34 0.34 0 0 Z " fill="#E2FBFE" transform="translate(635,295)"/>
<path d="M0 0 C-3.35535984 1.05749493 -6.13531084 0.92229439 -9.625 0.6875 C-16.39829115 0.66268941 -20.9951974 2.40692705 -26 7 C-30.00905448 12.26697451 -31.87864077 17.86370443 -31.47265625 24.484375 C-30.38169119 30.29083364 -28.23797387 35.12129952 -23.6640625 38.9609375 C-21.48793188 40.42313252 -19.30985138 41.76204044 -17 43 C-18.68359375 43.703125 -18.68359375 43.703125 -21 44 C-25.77996138 41.5533847 -29.92080671 38.18720776 -32.31640625 33.33203125 C-34.00931095 27.53362819 -34.29539122 22.00628809 -34 16 C-33.34 16 -32.68 16 -32 16 C-32.04125 15.071875 -32.0825 14.14375 -32.125 13.1875 C-32 10 -32 10 -30 7 C-29.34 7 -28.68 7 -28 7 C-28 6.01 -28 5.02 -28 4 C-25.9375 2.5 -25.9375 2.5 -23 1 C-21.453125 0.1646875 -21.453125 0.1646875 -19.875 -0.6875 C-13.43969222 -3.36887824 -6.24494025 -2.82938629 0 0 Z " fill="#2E7898" transform="translate(975,307)"/>
<path d="M0 0 C2.31 0 4.62 0 7 0 C7 0.33 7 0.66 7 1 C6.25580811 0.9906543 5.51161621 0.98130859 4.74487305 0.97167969 C1.53665082 2.17358594 1.38039495 2.63346229 -0.00463867 5.61425781 C-0.66264224 7.21906827 -1.29904438 8.83284172 -1.91796875 10.453125 C-2.4329467 11.73168365 -2.4329467 11.73168365 -2.95832825 13.03607178 C-4.05335861 15.76704039 -5.12060675 18.50793301 -6.1875 21.25 C-6.91681383 23.08275093 -7.64791319 24.91479243 -8.38085938 26.74609375 C-10.01518426 30.83974029 -11.63035854 34.94045209 -13.23446655 39.04602051 C-14.1444848 41.36878902 -15.06873184 43.68567475 -16 46 C-16.6875 44.4375 -16.6875 44.4375 -17 42 C-16.30583022 40.28110339 -15.60036594 38.56490988 -14.81079102 36.88769531 C-13.84299073 34.79158279 -13.84299073 34.79158279 -13.21484375 31.546875 C-11.78832907 25.61026847 -9.26621855 20.09960423 -6.875 14.5 C-6.40707031 13.39140625 -5.93914062 12.2828125 -5.45703125 11.140625 C-4.30984897 8.42484654 -3.15739826 5.71143659 -2 3 C-1.34 3 -0.68 3 0 3 C0 2.01 0 1.02 0 0 Z " fill="#DAFAFC" transform="translate(348,363)"/>
<path d="M0 0 C2.39504757 1.06446559 4.14672824 2.12946609 6.125 3.875 C11.75347193 8.03517491 17.94268354 10.52929873 25 10 C25.66 10.33 26.32 10.66 27 11 C33.3476652 11.46513064 39.70046123 10.73648052 46 10 C46 9.34 46 8.68 46 8 C49.465 7.505 49.465 7.505 53 7 C48.0531277 12.62215962 39.51381788 13.6626444 32.38671875 14.1953125 C21.88515377 14.60393371 12.9104284 12.12266161 4.62109375 5.5625 C2.84090974 3.84665999 1.42823079 2.01428294 0 0 Z " fill="#335F7B" transform="translate(723,351)"/>
<path d="M0 0 C3.15138275 2.62353341 4.30790074 5.64206445 5.84765625 9.390625 C6.1050206 10.01346375 6.36238495 10.63630249 6.62754822 11.27801514 C7.16973534 12.59452453 7.70827943 13.9125394 8.2434082 15.23193359 C9.05538848 17.23247874 9.8791939 19.22781682 10.70507812 21.22265625 C13.12392043 27.11545632 15.24343692 32.85202921 17 39 C11.72 39 6.44 39 1 39 C1 38.67 1 38.34 1 38 C5.29 38 9.58 38 14 38 C13.319375 36.1128125 13.319375 36.1128125 12.625 34.1875 C12.36976562 33.47980469 12.11453125 32.77210938 11.8515625 32.04296875 C10.9734231 29.75226641 10.9734231 29.75226641 9 27 C8.49913175 25.45061086 8.04486862 23.8857724 7.625 22.3125 C6.66898479 18.96402032 5.59178866 16.00008644 3.9375 12.9375 C1.72777307 8.79743691 0.80868119 4.59671414 0 0 Z " fill="#3C87A4" transform="translate(1082,324)"/>
<path d="M0 0 C1.17377953 3.40279943 0.84096698 5.21356791 -0.4765625 8.52734375 C-0.81558594 9.39657471 -1.15460938 10.26580566 -1.50390625 11.16137695 C-1.87386719 12.07749756 -2.24382812 12.99361816 -2.625 13.9375 C-2.99238281 14.87231201 -3.35976562 15.80712402 -3.73828125 16.77026367 C-4.47521277 18.64442922 -5.21636621 20.51694066 -5.96191406 22.38769531 C-7.33831992 25.85136951 -8.67028598 29.33064769 -10 32.8125 C-10.66629882 34.54180844 -11.33279503 36.27104097 -12 38 C-13.15049882 34.63287346 -12.84587766 32.74731054 -11.625 29.4375 C-11.34914063 28.67308594 -11.07328125 27.90867187 -10.7890625 27.12109375 C-10.39847656 26.07115234 -10.39847656 26.07115234 -10 25 C-9.67 24.01 -9.34 23.02 -9 22 C-8.34 22 -7.68 22 -7 22 C-6.97421875 21.3709375 -6.9484375 20.741875 -6.921875 20.09375 C-6.50632851 13.82277562 -5.12724119 9.40481686 -2 4 C-1.32587947 2.67041972 -0.65721904 1.33801545 0 0 Z " fill="#2D83A3" transform="translate(1060,311)"/>
<path d="M0 0 C0 3.96 0 7.92 0 12 C-8.58 12 -17.16 12 -26 12 C-26 11.67 -26 11.34 -26 11 C-18.41 11 -10.82 11 -3 11 C-2.67 8.03 -2.34 5.06 -2 2 C-10.25 2 -18.5 2 -27 2 C-27 1.67 -27 1.34 -27 1 C-22.68751188 0.83302487 -18.37500759 0.66647134 -14.0625 0.5 C-12.83080078 0.45230469 -11.59910156 0.40460938 -10.33007812 0.35546875 C-8.5753418 0.28779297 -8.5753418 0.28779297 -6.78515625 0.21875 C-5.70113525 0.17685547 -4.61711426 0.13496094 -3.50024414 0.09179688 C-1 0 -1 0 0 0 Z " fill="#1B577B" transform="translate(620,322)"/>
<path d="M0 0 C7.02652394 0.26024163 12.52467427 2.48958823 18 7 C18 10.96130371 16.65122875 11.82914401 14 14.6875 C12.88625 15.89986328 12.88625 15.89986328 11.75 17.13671875 C11.1725 17.75160156 10.595 18.36648438 10 19 C9.01 18.34 8.02 17.68 7 17 C7 16.34 7 15.68 7 15 C11.38461538 12 11.38461538 12 14 12 C14.33 10.35 14.66 8.7 15 7 C14.01 7 13.02 7 12 7 C11.67 6.34 11.34 5.68 11 5 C7.59611495 2.90530151 3.83255602 2.03184201 0 1 C0 0.67 0 0.34 0 0 Z " fill="#254265" transform="translate(761,295)"/>
<path d="M0 0 C0.69150146 0.03552979 1.38300293 0.07105957 2.09545898 0.10766602 C5.20922906 0.26465181 8.32332938 0.41368123 11.4375 0.5625 C12.52611328 0.61857422 13.61472656 0.67464844 14.73632812 0.73242188 C15.77080078 0.78076172 16.80527344 0.82910156 17.87109375 0.87890625 C18.82943115 0.9260376 19.78776855 0.97316895 20.77514648 1.02172852 C22.97347702 1.25991218 22.97347702 1.25991218 24 0 C26.33297433 -0.04092937 28.66705225 -0.04241723 31 0 C26.84630333 4.15369667 20.12810578 4.13917935 14.5 4.25 C9.43301586 4.16424004 4.89384973 3.28363272 0 2 C0 1.34 0 0.68 0 0 Z " fill="#357D96" transform="translate(951,361)"/>
<path d="M0 0 C0.33 0 0.66 0 1 0 C1 12.54 1 25.08 1 38 C-2.96 38 -6.92 38 -11 38 C-11 35.69 -11 33.38 -11 31 C-10.7525 31.9590625 -10.7525 31.9590625 -10.5 32.9375 C-10.005 33.618125 -9.51 34.29875 -9 35 C-5.04 35.495 -5.04 35.495 -1 36 C-0.67 24.12 -0.34 12.24 0 0 Z " fill="#1B7DA7" transform="translate(1016,323)"/>
<path d="M0 0 C0 0.66 0 1.32 0 2 C-0.81082031 1.7834375 -1.62164063 1.566875 -2.45703125 1.34375 C-12.26240492 -1.12186201 -21.04869594 -1.76912072 -31 0 C-31 -0.66 -31 -1.32 -31 -2 C-20.19251492 -5.39058356 -10.16701187 -5.14088185 0 0 Z " fill="#DFF7FB" transform="translate(984,295)"/>
<path d="M0 0 C0.33 0 0.66 0 1 0 C1.02505615 0.81678223 1.0501123 1.63356445 1.07592773 2.47509766 C1.19229143 6.19187549 1.31483472 9.90842502 1.4375 13.625 C1.47681641 14.91019531 1.51613281 16.19539063 1.55664062 17.51953125 C1.59853516 18.76347656 1.64042969 20.00742187 1.68359375 21.2890625 C1.73858032 23.00150146 1.73858032 23.00150146 1.79467773 24.74853516 C1.99336629 27.89494909 2.4522332 30.89818802 3 34 C3.06305204 35.79067806 3.08671114 37.58337579 3.0625 39.375 C3.05347656 40.24898438 3.04445313 41.12296875 3.03515625 42.0234375 C3.02355469 42.67570312 3.01195312 43.32796875 3 44 C2.01 44.495 2.01 44.495 1 45 C-0.03485633 39.90807713 -0.13009967 35.05052659 -0.09765625 29.8828125 C-0.0962413 29.02565643 -0.09482635 28.16850037 -0.09336853 27.28536987 C-0.08780022 24.5652101 -0.07525364 21.84513462 -0.0625 19.125 C-0.0574809 17.27343869 -0.05291871 15.42187609 -0.04882812 13.5703125 C-0.03784117 9.04684285 -0.02059852 4.52343568 0 0 Z " fill="#237EA2" transform="translate(265,365)"/>
<path d="M0 0 C0.33 0 0.66 0 1 0 C1 14.85 1 29.7 1 45 C-0.65 43.35 -2.3 41.7 -4 40 C-2.515 39.505 -2.515 39.505 -1 39 C-1.00523682 37.88963379 -1.01047363 36.77926758 -1.01586914 35.63525391 C-1.03393985 31.52409671 -1.04543962 27.41294304 -1.05493164 23.30175781 C-1.05996711 21.52082733 -1.06679581 19.739901 -1.07543945 17.95898438 C-1.08753942 15.40233335 -1.09323609 12.84573688 -1.09765625 10.2890625 C-1.10281754 9.49005524 -1.10797882 8.69104797 -1.11329651 7.86782837 C-1.11387171 2.22774341 -1.11387171 2.22774341 0 0 Z " fill="#EEFEFF" transform="translate(900,295)"/>
<path d="M0 0 C-1.39798828 0.03867187 -1.39798828 0.03867187 -2.82421875 0.078125 C-10.86784491 0.43598097 -17.64844681 1.46924475 -25.29296875 4.2578125 C-28.06924988 5.01898626 -29.34724487 5.00032294 -32 4 C-22.89815496 -0.96464275 -9.77762365 -5.74349921 0 0 Z " fill="#377E9C" transform="translate(975,295)"/>
<path d="M0 0 C0.66 0.33 1.32 0.66 2 1 C-3.94 15.355 -3.94 15.355 -10 30 C-11.01182661 25.95269358 -11.00430574 25.12580422 -9.6875 21.4375 C-9.29111328 20.29087891 -9.29111328 20.29087891 -8.88671875 19.12109375 C-8 17 -8 17 -6 14 C-5.41162754 12.28616279 -4.87280046 10.55480159 -4.375 8.8125 C-3.98441406 7.46091797 -3.98441406 7.46091797 -3.5859375 6.08203125 C-3.39257812 5.39496094 -3.19921875 4.70789063 -3 4 C-2.34 4 -1.68 4 -1 4 C-0.67 2.68 -0.34 1.36 0 0 Z " fill="#D1F7FB" transform="translate(314,448)"/>
<path d="M0 0 C0.66 0 1.32 0 2 0 C2.01417969 0.67804688 2.02835938 1.35609375 2.04296875 2.0546875 C2.40938011 9.2046606 3.6431243 15.18067651 8 21 C10.82370461 23.36964156 13.75454678 25.26060677 17 27 C15.31640625 27.703125 15.31640625 27.703125 13 28 C8.22003862 25.5533847 4.07919329 22.18720776 1.68359375 17.33203125 C-0.00931095 11.53362819 -0.29539122 6.00628809 0 0 Z " fill="#25708F" transform="translate(941,323)"/>
<path d="M0 0 C2.39504757 1.06446559 4.14672824 2.12946609 6.125 3.875 C11.84749217 8.10466813 17.86253403 10.3568733 25 10 C25.66 10.66 26.32 11.32 27 12 C20.00148705 13.5552251 15.23533196 12.56304683 9 9 C5.78262675 6.54049689 2.78650558 3.94131144 0 1 C0 0.67 0 0.34 0 0 Z " fill="#265572" transform="translate(723,351)"/>
<path d="M0 0 C1.485 0.99 1.485 0.99 3 2 C3 2.66 3 3.32 3 4 C2.34 4 1.68 4 1 4 C1.08378906 4.70898438 1.16757812 5.41796875 1.25390625 6.1484375 C2.46149618 18.77463096 1.62885687 31.35726764 1 44 C0.67 44 0.34 44 0 44 C0 29.48 0 14.96 0 0 Z " fill="#E7FBFD" transform="translate(867,317)"/>
<path d="M0 0 C0 0.33 0 0.66 0 1 C-0.86882813 1.09796875 -1.73765625 1.1959375 -2.6328125 1.296875 C-13.43709881 2.69877345 -18.6419094 6.25005842 -26 14 C-26 9.66260186 -23.83445051 7.97199417 -20.9765625 4.875 C-14.86088701 -0.92643129 -7.90414294 -0.35042998 0 0 Z " fill="#DCEDF5" transform="translate(759,307)"/>
<path d="M0 0 C5.61 0 11.22 0 17 0 C17.33 1.32 17.66 2.64 18 4 C17.21882813 3.76990234 17.21882813 3.76990234 16.421875 3.53515625 C13.36721485 2.86017489 10.36984029 2.65588882 7.25 2.4375 C6.07953125 2.35371094 4.9090625 2.26992188 3.703125 2.18359375 C2.81109375 2.12300781 1.9190625 2.06242187 1 2 C0.67 3.98 0.34 5.96 0 8 C-0.66 7.67 -1.32 7.34 -2 7 C-1.34 4.69 -0.68 2.38 0 0 Z " fill="#468BA8" transform="translate(1054,295)"/>
<path d="M0 0 C1.485 0.99 1.485 0.99 3 2 C3 2.66 3 3.32 3 4 C2.34 4 1.68 4 1 4 C1 17.53 1 31.06 1 45 C0.67 45 0.34 45 0 45 C0 30.15 0 15.3 0 0 Z " fill="#F0F7FF" transform="translate(456,317)"/>
<path d="M0 0 C3.31009147 2.20672764 3.5897825 2.86974972 4.82421875 6.46484375 C5.13037109 7.34720703 5.43652344 8.22957031 5.75195312 9.13867188 C6.06068359 10.06228516 6.36941406 10.98589844 6.6875 11.9375 C7.00783203 12.85724609 7.32816406 13.77699219 7.65820312 14.72460938 C10 21.57024587 10 21.57024587 10 25 C10.66 25 11.32 25 12 25 C11.67 25.66 11.34 26.32 11 27 C8.33397483 24.66645724 7.20362146 22.51616189 5.95703125 19.21875 C5.60576172 18.29449219 5.25449219 17.37023437 4.89257812 16.41796875 C4.53615234 15.45503906 4.17972656 14.49210937 3.8125 13.5 C3.44447266 12.53707031 3.07644531 11.57414062 2.69726562 10.58203125 C0 3.40600359 0 3.40600359 0 0 Z " fill="#3080A0" transform="translate(1063,310)"/>
<path d="M0 0 C0.33 0 0.66 0 1 0 C0.68676801 7.36095182 -0.93914605 13.30883089 -4 20 C-4.99 20 -5.98 20 -7 20 C-5.07443364 13.14381674 -2.7527517 6.56747868 0 0 Z " fill="#D3F2F7" transform="translate(337,466)"/>
<path d="M0 0 C-5.625 3 -5.625 3 -9 3 C-9.226875 3.515625 -9.45375 4.03125 -9.6875 4.5625 C-11.4975553 7.92403127 -13.73996404 10.92911144 -16 14 C-16.66 13.67 -17.32 13.34 -18 13 C-16.94423865 7.45725293 -14.45940895 5.40095081 -10.0703125 2.296875 C-4.07837764 -1.45656344 -4.07837764 -1.45656344 0 0 Z " fill="#D8F4F8" transform="translate(963,308)"/>
<path d="M0 0 C0.33 0 0.66 0 1 0 C1.12375 0.9075 1.2475 1.815 1.375 2.75 C1.80432631 5.87801553 1.80432631 5.87801553 3.0625 7.9375 C4.43317084 10.95297586 4.12551466 13.73661871 4 17 C2.02 17.99 2.02 17.99 0 19 C0 12.73 0 6.46 0 0 Z " fill="#919192" transform="translate(274,271)"/>
<path d="M0 0 C1.32 0 2.64 0 4 0 C4 0.66 4 1.32 4 2 C6.475 2.99 6.475 2.99 9 4 C9.5 7.0625 9.5 7.0625 9 11 C6.61176729 13.71294856 3.90748288 15.86481726 1 18 C0.34 17.67 -0.32 17.34 -1 17 C1.64 14.03 4.28 11.06 7 8 C4.9957983 3.9915966 3.50944037 2.58590343 0 0 Z " fill="#D7F3F7" transform="translate(984,297)"/>
<path d="M0 0 C1.4540625 0.0309375 1.4540625 0.0309375 2.9375 0.0625 C3.2675 1.0525 3.5975 2.0425 3.9375 3.0625 C1.6275 2.7325 -0.6825 2.4025 -3.0625 2.0625 C-3.124375 3.01125 -3.18625 3.96 -3.25 4.9375 C-3.96647307 10.07924788 -6.36424575 14.67468468 -9.0625 19.0625 C-9.7225 19.3925 -10.3825 19.7225 -11.0625 20.0625 C-4.69631959 0.09584326 -4.69631959 0.09584326 0 0 Z " fill="#398DAE" transform="translate(353.0625,363.9375)"/>
<path d="M0 0 C1.2989839 0.90626784 2.58893167 1.82549537 3.875 2.75 C4.59429688 3.26046875 5.31359375 3.7709375 6.0546875 4.296875 C8.08570565 6.07503547 8.97855012 7.52701607 10 10 C8.68 10.99 7.36 11.98 6 13 C5.71125 11.88625 5.4225 10.7725 5.125 9.625 C4.30758671 5.99708908 4.30758671 5.99708908 2 4 C0.68 4 -0.64 4 -2 4 C-2.33 4.66 -2.66 5.32 -3 6 C-4.65 6 -6.3 6 -8 6 C-5.38485683 3.87961365 -2.80362384 1.86908256 0 0 Z " fill="#2C7593" transform="translate(983,344)"/>
<path d="M0 0 C0.66 0.33 1.32 0.66 2 1 C1.25130208 2.66015625 0.50260417 4.3203125 -0.24609375 5.98046875 C-2.13195017 11.03221885 -2.12445942 15.97922344 -2.0625 21.3125 C-2.05798828 22.05306641 -2.05347656 22.79363281 -2.04882812 23.55664062 C-2.03712175 25.37112899 -2.01918898 27.18557534 -2 29 C-2.66 28.67 -3.32 28.34 -4 28 C-4.1171893 24.64613239 -4.18757584 21.29279851 -4.25 17.9375 C-4.28351562 16.99455078 -4.31703125 16.05160156 -4.3515625 15.08007812 C-4.43917403 8.79395102 -3.63693556 5.16187115 0 0 Z " fill="#DAF7FB" transform="translate(931,310)"/>
<path d="M0 0 C1.32 0.33 2.64 0.66 4 1 C4 1.66 4 2.32 4 3 C4.763125 3.12375 5.52625 3.2475 6.3125 3.375 C9 4 9 4 12 6 C14.60245498 6.14221065 17.09117684 6.18802932 19.6875 6.125 C20.38939453 6.11597656 21.09128906 6.10695313 21.81445312 6.09765625 C23.54311525 6.07413704 25.27160145 6.03826713 27 6 C22.10374675 9.26416883 16.72263237 8.55402108 11 8 C6.20952127 6.5635968 2.5394187 4.44398273 0 0 Z " fill="#D0F3F8" transform="translate(948,343)"/>
<path d="M0 0 C1 3 1 3 -1 8 C-9.58 8 -18.16 8 -27 8 C-26.67 6.68 -26.34 5.36 -26 4 C-26 4.99 -26 5.98 -26 7 C-22.41506751 7.00626424 -18.83415463 6.94668309 -15.25 6.875 C-14.23421875 6.87757813 -13.2184375 6.88015625 -12.171875 6.8828125 C-6.89043799 6.9388058 -6.89043799 6.9388058 -2.40429688 4.60644531 C-1.13344117 2.80355491 -1.13344117 2.80355491 0 0 Z " fill="#1D88B2" transform="translate(330,478)"/>
<path d="M0 0 C0.66 0 1.32 0 2 0 C-0.58125669 8.17397951 -3.77011881 16.06640834 -7 24 C-7.33 24 -7.66 24 -8 24 C-8.29299772 18.92137278 -7.99343252 16.95359011 -5 13 C-4.04568978 10.77417221 -3.1528791 8.52129486 -2.3125 6.25 C-1.87550781 5.07953125 -1.43851562 3.9090625 -0.98828125 2.703125 C-0.66214844 1.81109375 -0.33601563 0.9190625 0 0 Z " fill="#CFF6FA" transform="translate(329,410)"/>
<path d="M0 0 C1.8871875 0.2475 1.8871875 0.2475 3.8125 0.5 C12.29851694 1.43252933 20.55103005 1.10806163 29 0 C29 0.66 29 1.32 29 2 C25.48215677 2.42617341 21.96091324 2.81038991 18.4375 3.1875 C17.44685547 3.30802734 16.45621094 3.42855469 15.43554688 3.55273438 C9.30032782 4.18460079 5.4254605 4.02090858 0 1 C0 0.67 0 0.34 0 0 Z " fill="#D6F6F9" transform="translate(951,363)"/>
<path d="M0 0 C-1.35561417 4.06684251 -3.40067414 4.75891031 -7 7 C-8.5778125 8.11375 -8.5778125 8.11375 -10.1875 9.25 C-13 11 -13 11 -16 11 C-5.83426966 0 -5.83426966 0 0 0 Z " fill="#2A5174" transform="translate(738,296)"/>
<path d="M0 0 C0 5.61 0 11.22 0 17 C-0.66 17 -1.32 17 -2 17 C-2.04898437 16.18015625 -2.09796875 15.3603125 -2.1484375 14.515625 C-2.22320312 13.43796875 -2.29796875 12.3603125 -2.375 11.25 C-2.44460938 10.18265625 -2.51421875 9.1153125 -2.5859375 8.015625 C-2.9728223 5.19793568 -3.55686166 3.4169634 -5 1 C-2 0 -2 0 0 0 Z " fill="#B3B3B3" transform="translate(281,268)"/>
<path d="M0 0 C0.66 0 1.32 0 2 0 C2.6708712 1.6232687 3.33657029 3.24867578 4 4.875 C4.556875 6.23238281 4.556875 6.23238281 5.125 7.6171875 C6 10 6 10 6 12 C0.72 12 -4.56 12 -10 12 C-10 11.67 -10 11.34 -10 11 C-5.71 11 -1.42 11 3 11 C2.2575 9.1128125 2.2575 9.1128125 1.5 7.1875 C0.43891831 4.49058403 0 2.95274099 0 0 Z " fill="#4A8CA2" transform="translate(1093,351)"/>
<path d="M0 0 C3 1 3 1 4.1875 3.3125 C5 6 5 6 5 10 C5.66 10 6.32 10 7 10 C7.66 13.3 8.32 16.6 9 20 C6.97559802 17.97559802 6.33203848 16.72416643 5.2734375 14.12109375 C4.9640625 13.36505859 4.6546875 12.60902344 4.3359375 11.83007812 C4.01882813 11.04052734 3.70171875 10.25097656 3.375 9.4375 C3.05015625 8.64408203 2.7253125 7.85066406 2.390625 7.03320312 C0 1.15206473 0 1.15206473 0 0 Z " fill="#D8F6FA" transform="translate(1091,343)"/>
<path d="M0 0 C1.13665504 3.40996511 0.91583208 3.86305848 -0.43359375 7.01171875 C-0.75263672 7.76904297 -1.07167969 8.52636719 -1.40039062 9.30664062 C-1.74263672 10.09232422 -2.08488281 10.87800781 -2.4375 11.6875 C-2.77587891 12.48478516 -3.11425781 13.28207031 -3.46289062 14.10351562 C-4.3000701 16.07265607 -5.1489353 18.03682084 -6 20 C-6.33 20 -6.66 20 -7 20 C-7.82618268 13.72101164 -4.89779579 9.32140681 -2 4 C-1.32792615 2.66938399 -0.65926282 1.33700963 0 0 Z " fill="#D3F6FA" transform="translate(1050,302)"/>
<path d="M0 0 C2 3 2 3 4 10 C-1.28 10 -6.56 10 -12 10 C-12 9.67 -12 9.34 -12 9 C-5.565 8.505 -5.565 8.505 1 8 C0.67 5.36 0.34 2.72 0 0 Z " fill="#A5D8E4" transform="translate(1069,328)"/>
<path d="M0 0 C1.32 0.33 2.64 0.66 4 1 C2.38405168 3.04119788 0.7143618 5.04072937 -1 7 C-1.66 7 -2.32 7 -3 7 C-3 6.34 -3 5.68 -3 5 C-3.78375 4.71125 -4.5675 4.4225 -5.375 4.125 C-8 3 -8 3 -10 1 C-6.44219804 1.60990891 -3.3171411 2.5783681 0 4 C0 2.68 0 1.36 0 0 Z " fill="#337C99" transform="translate(985,307)"/>
<path d="M0 0 C0.33 0 0.66 0 1 0 C4.35416667 17.96875 4.35416667 17.96875 1 23 C0.15199233 15.307359 -0.12152487 7.73708326 0 0 Z " fill="#1D577A" transform="translate(265,412)"/>
<path d="M0 0 C1.18771723 3.42943519 0.80226223 5.37784675 -0.4375 8.75 C-0.72496094 9.54921875 -1.01242187 10.3484375 -1.30859375 11.171875 C-1.53675781 11.77515625 -1.76492188 12.3784375 -2 13 C-2.66 13 -3.32 13 -4 13 C-4 13.99 -4 14.98 -4 16 C-4.66 16 -5.32 16 -6 16 C-4.25192871 10.53262809 -2.34205919 5.24175152 0 0 Z " fill="#378FAD" transform="translate(341,385)"/>
<path d="M0 0 C0.99 0 1.98 0 3 0 C3 0.66 3 1.32 3 2 C4.98 2 6.96 2 9 2 C9 2.66 9 3.32 9 4 C5.04 4 1.08 4 -3 4 C-2.01 2.68 -1.02 1.36 0 0 Z " fill="#24496C" transform="translate(801,285)"/>
<path d="M0 0 C1.32 0.33 2.64 0.66 4 1 C0.7 3.97 -2.6 6.94 -6 10 C-6.66 9.67 -7.32 9.34 -8 9 C-5.36 6.03 -2.72 3.06 0 0 Z " fill="#2B5376" transform="translate(809,275)"/>
<path d="M0 0 C7.92 0 15.84 0 24 0 C24.33 0.99 24.66 1.98 25 3 C24.01 2.67 23.02 2.34 22 2 C20.30132812 1.85222064 18.59822511 1.75252934 16.89453125 1.68359375 C15.42016602 1.62075195 15.42016602 1.62075195 13.91601562 1.55664062 C12.89185547 1.51732422 11.86769531 1.47800781 10.8125 1.4375 C9.77673828 1.39431641 8.74097656 1.35113281 7.67382812 1.30664062 C5.1160181 1.20055634 2.55811155 1.09849854 0 1 C0 0.67 0 0.34 0 0 Z " fill="#E4FEFE" transform="translate(1054,351)"/>
<path d="M0 0 C6.77386385 0.27259009 11.34724339 1.19053359 17 5 C17 5.33 17 5.66 17 6 C13.28400809 6.20086443 12.22791555 6.1519437 9 4 C9 3.34 9 2.68 9 2 C6.03 1.67 3.06 1.34 0 1 C0 0.67 0 0.34 0 0 Z " fill="#D7F6FA" transform="translate(965,307)"/>
<path d="M0 0 C2.23046875 -0.34375 2.23046875 -0.34375 5 0 C7.23828125 2.40625 7.23828125 2.40625 9.3125 5.5 C10.00988281 6.5209375 10.70726562 7.541875 11.42578125 8.59375 C11.94527344 9.3878125 12.46476563 10.181875 13 11 C12.01 11 11.02 11 10 11 C7 7.66666667 7 7.66666667 7 5 C6.34 5 5.68 5 5 5 C4.67 3.68 4.34 2.36 4 1 C2.68 0.67 1.36 0.34 0 0 Z " fill="#284A6C" transform="translate(865,296)"/>
<path d="M0 0 C0.66 0 1.32 0 2 0 C2 0.99 2 1.98 2 3 C2.66 3 3.32 3 4 3 C4.28875 3.639375 4.5775 4.27875 4.875 4.9375 C5.82823451 7.15206079 5.82823451 7.15206079 8 8 C8.625 10.0625 8.625 10.0625 9 12 C8.01 12.495 8.01 12.495 7 13 C5.82786955 11.21190303 4.66244474 9.41940875 3.5 7.625 C2.8503125 6.62726563 2.200625 5.62953125 1.53125 4.6015625 C0 2 0 2 0 0 Z " fill="#235071" transform="translate(880,333)"/>
<path d="M0 0 C0.33 0 0.66 0 1 0 C1.45732667 5.71658336 0.52273754 8.48649253 -3 13 C-4 11 -4 11 -3.22265625 8.3984375 C-2.83980469 7.40070313 -2.45695312 6.40296875 -2.0625 5.375 C-1.68222656 4.37210937 -1.30195313 3.36921875 -0.91015625 2.3359375 C-0.60980469 1.56507813 -0.30945313 0.79421875 0 0 Z " fill="#CBF0F6" transform="translate(346,442)"/>
<path d="M0 0 C0.33 0.99 0.66 1.98 1 3 C-1.34488245 5.94851556 -2.42333987 6.93035506 -6.234375 7.390625 C-7.39453125 7.34421875 -8.5546875 7.2978125 -9.75 7.25 C-10.92046875 7.21390625 -12.0909375 7.1778125 -13.296875 7.140625 C-14.18890625 7.09421875 -15.0809375 7.0478125 -16 7 C-16 6.67 -16 6.34 -16 6 C-14.77023437 5.97873047 -14.77023437 5.97873047 -13.515625 5.95703125 C-6.75112142 5.87633858 -6.75112142 5.87633858 -1.25 2.4375 C-0.8375 1.633125 -0.425 0.82875 0 0 Z " fill="#D5E8F3" transform="translate(814,283)"/>
<path d="M0 0 C0.33 0 0.66 0 1 0 C0.88490339 1.41750563 0.75746342 2.83401169 0.625 4.25 C0.55539062 5.03890625 0.48578125 5.8278125 0.4140625 6.640625 C-0.01507113 9.085877 -0.78600638 10.84836903 -2 13 C-2.66 13 -3.32 13 -4 13 C-3.52140759 11.39566191 -3.04210442 9.79153584 -2.5625 8.1875 C-2.29566406 7.29417969 -2.02882813 6.40085937 -1.75390625 5.48046875 C-1.19612127 3.64526945 -0.60655425 1.81966274 0 0 Z " fill="#D0F3F8" transform="translate(358,410)"/>
<path d="M0 0 C6.93 0.495 6.93 0.495 14 1 C14 1.33 14 1.66 14 2 C12.2300132 2.19532961 10.45895721 2.38098882 8.6875 2.5625 C7.70136719 2.66691406 6.71523438 2.77132813 5.69921875 2.87890625 C3 3 3 3 0 2 C0 1.34 0 0.68 0 0 Z " fill="#297A99" transform="translate(951,361)"/>
<path d="M0 0 C0.66 0 1.32 0 2 0 C2.19335938 0.61488281 2.38671875 1.22976563 2.5859375 1.86328125 C2.84632813 2.67152344 3.10671875 3.47976563 3.375 4.3125 C3.63023437 5.11300781 3.88546875 5.91351563 4.1484375 6.73828125 C4.98831811 9.22724528 4.98831811 9.22724528 7 12 C6.01 12 5.02 12 4 12 C3.32332002 10.75539217 2.65905281 9.50403104 2 8.25 C1.62875 7.55390625 1.2575 6.8578125 0.875 6.140625 C0 4 0 4 0 0 Z " fill="#234F6D" transform="translate(717,338)"/>
<path d="M0 0 C0.33 0 0.66 0 1 0 C0.88541307 1.43836751 0.75790884 2.87570966 0.625 4.3125 C0.55539062 5.11300781 0.48578125 5.91351563 0.4140625 6.73828125 C0 9 0 9 -2 12 C-3.6442351 7.06729471 -2.18615592 4.45975807 0 0 Z " fill="#337998" transform="translate(932,311)"/>
<path d="M0 0 C0.66 0 1.32 0 2 0 C3.54296875 1.86328125 3.54296875 1.86328125 5.1875 4.3125 C5.73792969 5.11300781 6.28835938 5.91351563 6.85546875 6.73828125 C7.23316406 7.48464844 7.61085938 8.23101562 8 9 C7.67 9.99 7.34 10.98 7 12 C4.25144224 9.62624557 3.3170083 7.33642103 2 4 C1.34 3.67 0.68 3.34 0 3 C0 2.01 0 1.02 0 0 Z " fill="#224B6D" transform="translate(881,314)"/>
<path d="M0 0 C3.44216672 2.6598561 3.99504674 5.90288286 5 10 C4.01 10 3.02 10 2 10 C0.68373308 6.38026598 0 3.90432869 0 0 Z " fill="#3183A2" transform="translate(1089,341)"/>
<path d="M0 0 C0.66 0 1.32 0 2 0 C1.54738642 1.43931117 1.08767021 2.87638999 0.625 4.3125 C0.36976562 5.11300781 0.11453125 5.91351563 -0.1484375 6.73828125 C-1 9 -1 9 -3 12 C-3 9.69 -3 7.38 -3 5 C-2.34 5 -1.68 5 -1 5 C-0.67 3.35 -0.34 1.7 0 0 Z " fill="#D1F5FA" transform="translate(1037,332)"/>
<path d="M0 0 C0.99 0.33 1.98 0.66 3 1 C2.01 1.33 1.02 1.66 0 2 C-0.70151152 3.3153341 -1.36525925 4.65117592 -2 6 C-3.625 7.75 -3.625 7.75 -5 9 C-5.3125 6.75 -5.3125 6.75 -5 4 C-2.6875 1.625 -2.6875 1.625 0 0 Z " fill="#CFEEF4" transform="translate(938,301)"/>
<path d="M0 0 C0.33 0 0.66 0 1 0 C1 3.3 1 6.6 1 10 C-0.65 8.35 -2.3 6.7 -4 5 C-3.01 4.67 -2.02 4.34 -1 4 C-0.26676204 1.98491642 -0.26676204 1.98491642 0 0 Z " fill="#D8F3F7" transform="translate(900,330)"/>
<path d="M0 0 C0.99 0 1.98 0 3 0 C1.55746343 3.36591866 -0.33264727 5.51047079 -3 8 C-2.67 6.02 -2.34 4.04 -2 2 C-1.34 2 -0.68 2 0 2 C0 1.34 0 0.68 0 0 Z " fill="#2D567A" transform="translate(735,311)"/>
<path d="M0 0 C0.33 0 0.66 0 1 0 C1 2.64 1 5.28 1 8 C-0.98 8.99 -0.98 8.99 -3 10 C-2.01 6.7 -1.02 3.4 0 0 Z " fill="#CEF0F7" transform="translate(362,399)"/>
<path d="M0 0 C1.485 0.99 1.485 0.99 3 2 C3 2.66 3 3.32 3 4 C2.34 4 1.68 4 1 4 C1 7.3 1 10.6 1 14 C0.67 14 0.34 14 0 14 C0 9.38 0 4.76 0 0 Z " fill="#E6EDF9" transform="translate(456,317)"/>
<path d="M0 0 C-2.12780579 2.34058637 -4.11562221 3.70700306 -7 5 C-7.33 4.01 -7.66 3.02 -8 2 C-4.77208445 -0.1519437 -3.71599191 -0.20086443 0 0 Z " fill="#214A70" transform="translate(745,307)"/>
<path d="M0 0 C6.75 0.875 6.75 0.875 9 2 C9 2.66 9 3.32 9 4 C4.545 3.01 4.545 3.01 0 2 C0 1.34 0 0.68 0 0 Z " fill="#D2F0F6" transform="translate(975,293)"/>
<path d="M0 0 C0.33 0 0.66 0 1 0 C0.67 2.97 0.34 5.94 0 9 C-0.99 9.33 -1.98 9.66 -3 10 C-2.01 6.7 -1.02 3.4 0 0 Z " fill="#C6ECF4" transform="translate(341,455)"/>
<path d="M0 0 C3.68266103 0.59950296 7.34543185 1.24758891 11 2 C11 2.33 11 2.66 11 3 C9.741875 3.020625 8.48375 3.04125 7.1875 3.0625 C6.47980469 3.07410156 5.77210938 3.08570313 5.04296875 3.09765625 C3 3 3 3 0 2 C0 1.34 0 0.68 0 0 Z " fill="#999B9B" transform="translate(500,457)"/>
<path d="M0 0 C0.33 0 0.66 0 1 0 C0.67 2.97 0.34 5.94 0 9 C-0.99 9.33 -1.98 9.66 -3 10 C-2.01 6.7 -1.02 3.4 0 0 Z " fill="#C8ECF4" transform="translate(350,431)"/>
<path d="M0 0 C2.5 1.25 2.5 1.25 5 3 C5 4.32 5 5.64 5 7 C4.01 7.495 4.01 7.495 3 8 C2.67 6.02 2.34 4.04 2 2 C1.34 2 0.68 2 0 2 C0 1.34 0 0.68 0 0 Z " fill="#2B7191" transform="translate(986,299)"/>
<path d="M0 0 C2.31 0 4.62 0 7 0 C6.67 1.32 6.34 2.64 6 4 C5.01 3.34 4.02 2.68 3 2 C2.01 2 1.02 2 0 2 C0 1.34 0 0.68 0 0 Z " fill="#C7E5EB" transform="translate(980,343)"/>
<path d="M0 0 C1.99097846 2.98646769 2.94124926 5.59687262 4 9 C3.01 9.495 3.01 9.495 2 10 C-0.09350689 6.5980513 -0.17942163 3.94727588 0 0 Z " fill="#3B86A5" transform="translate(1074,304)"/>
<path d="M0 0 C0.99 0.33 1.98 0.66 3 1 C3 1.66 3 2.32 3 3 C-0.96 3 -4.92 3 -9 3 C-9 2.67 -9 2.34 -9 2 C-6.03 2 -3.06 2 0 2 C0 1.34 0 0.68 0 0 Z " fill="#31526A" transform="translate(833,286)"/>
<path d="M0 0 C0 1.65 0 3.3 0 5 C-1.32 5 -2.64 5 -4 5 C-4.33 3.68 -4.66 2.36 -5 1 C-2 0 -2 0 0 0 Z " fill="#C3C3C5" transform="translate(281,268)"/>
</svg>
